<?xml version="1.0" encoding="utf-8"?>
<!-- Generator: Adobe Illustrator 16.0.0, SVG Export Plug-In . SVG Version: 6.00 Build 0)  -->
<!DOCTYPE svg PUBLIC "-//W3C//DTD SVG 1.1//EN" "http://www.w3.org/Graphics/SVG/1.1/DTD/svg11.dtd">
<svg version="1.1" id="Capa_1" xmlns="http://www.w3.org/2000/svg" xmlns:xlink="http://www.w3.org/1999/xlink" x="0px" y="0px"
	 width="16px" height="16px" viewBox="0 0 16 16" enable-background="new 0 0 16 16" xml:space="preserve">
<g>
	<path fill="#54626A" d="M9.311,10.265c0-0.78-0.632-1.412-1.412-1.412H1.793c-0.78,0-1.412,0.631-1.412,1.412v1.62
		c0,0.779,0.632,1.412,1.412,1.412h6.105c0.78,0,1.412-0.633,1.412-1.412V10.265z M9.311,10.265"/>
	<path fill="#54626A" d="M8.425,6.706H11.1c0.333,0,0.622-0.245,0.693-0.57l0.175-0.81c0.046-0.209-0.005-0.438-0.14-0.604
		c-0.134-0.167-0.337-0.261-0.551-0.261H8.604c-0.335,0-0.622,0.231-0.693,0.557L7.733,5.825c-0.045,0.209,0.006,0.436,0.14,0.602
		C8.009,6.594,8.211,6.706,8.425,6.706L8.425,6.706z M8.425,6.706"/>
	<path fill="#54626A" d="M14.472,2.703H6.694c-0.633,0-1.131,0.493-1.131,1.126v1.937c0.145-0.042,0.373-0.063,0.571-0.063
		L7.028,5.71c0.001-0.013,0.003-0.019,0.007-0.029l0.177-0.8c0.142-0.655,0.714-1.105,1.392-1.105h2.674
		c0.439,0,0.843,0.183,1.109,0.512c0.272,0.337,0.375,0.77,0.282,1.193l-0.057,0.263l1.477,0.01c0.596,0.004,1.14,0.248,1.53,0.637
		V3.829C15.619,3.195,15.105,2.703,14.472,2.703L14.472,2.703z M14.472,2.703"/>
	<path fill="#54626A" d="M14.094,6.47l-1.646-0.001c-0.199,0.565-0.743,0.968-1.348,0.968H8.425c-0.422,0-0.835-0.209-1.109-0.55
		c-0.107-0.136-0.19-0.293-0.243-0.457L6.136,6.422C5.751,6.42,5.373,6.528,5.045,6.726L2.664,8.17h5.093
		c1.215,0,2.2,0.965,2.2,2.174v1.793c0,0.271-0.058,0.528-0.162,0.76l5.215-3.123c0.339-0.202,0.562-0.567,0.562-0.962V7.946
		C15.569,7.135,14.906,6.475,14.094,6.47L14.094,6.47z M14.094,6.47"/>
</g>
</svg>
