<?xml version="1.0" encoding="utf-8"?>
<!-- Generator: Adobe Illustrator 16.0.0, SVG Export Plug-In . SVG Version: 6.00 Build 0)  -->
<!DOCTYPE svg PUBLIC "-//W3C//DTD SVG 1.1//EN" "http://www.w3.org/Graphics/SVG/1.1/DTD/svg11.dtd">
<svg version="1.1" id="Capa_1" xmlns="http://www.w3.org/2000/svg" xmlns:xlink="http://www.w3.org/1999/xlink" x="0px" y="0px"
	 width="20px" height="20px" viewBox="0 0 20 20" enable-background="new 0 0 20 20" xml:space="preserve">
<circle fill="none" stroke="#54626A" stroke-width="0.7228" stroke-miterlimit="10" cx="10" cy="9.925" r="9.638"/>
<g>
	<path fill="#54626A" d="M6.692,15.666c-0.348-0.201-0.794-0.083-0.996,0.266c-0.201,0.35-0.082,0.795,0.267,0.996
		c0.115,0.066,0.24,0.099,0.364,0.099c0.252,0,0.497-0.13,0.632-0.364C7.16,16.313,7.041,15.866,6.692,15.666L6.692,15.666z
		 M6.692,15.666"/>
	<path fill="#54626A" d="M6.314,4.29c0.124,0,0.25-0.031,0.365-0.098c0.348-0.202,0.467-0.648,0.265-0.997
		C6.741,2.846,6.295,2.729,5.947,2.93C5.599,3.133,5.481,3.579,5.683,3.927C5.818,4.16,6.062,4.29,6.314,4.29L6.314,4.29z
		 M6.314,4.29"/>
	<path fill="#54626A" d="M3.262,6.888c0.114,0.066,0.24,0.098,0.363,0.098c0.252,0,0.498-0.131,0.632-0.365
		C4.458,6.272,4.338,5.826,3.99,5.625S3.195,5.542,2.994,5.892S2.913,6.686,3.262,6.888L3.262,6.888z M3.262,6.888"/>
	<path fill="#54626A" d="M9.988,3.3L9.988,3.3c0.404,0,0.73-0.327,0.729-0.73s-0.328-0.729-0.73-0.728
		c-0.403,0-0.729,0.327-0.728,0.73C9.259,2.975,9.585,3.3,9.988,3.3L9.988,3.3z M9.988,3.3"/>
	<path fill="#54626A" d="M3.268,12.978c-0.349,0.201-0.467,0.647-0.265,0.996c0.136,0.233,0.38,0.363,0.632,0.363
		c0.124,0,0.25-0.032,0.365-0.099c0.349-0.201,0.467-0.648,0.265-0.995C4.063,12.895,3.617,12.775,3.268,12.978L3.268,12.978z
		 M3.268,12.978"/>
	<path fill="#54626A" d="M3.375,9.933c0-0.403-0.327-0.729-0.729-0.728c-0.403,0-0.729,0.327-0.729,0.729
		c0,0.402,0.327,0.728,0.729,0.728l0,0C3.05,10.661,3.376,10.335,3.375,9.933L3.375,9.933z M3.375,9.933"/>
	<path fill="#54626A" d="M10.004,16.549c-0.402,0-0.729,0.327-0.729,0.73c0,0.401,0.327,0.729,0.729,0.729
		c0.403,0,0.729-0.327,0.729-0.73C10.733,16.875,10.406,16.549,10.004,16.549L10.004,16.549z M10.004,16.549"/>
	<path fill="#54626A" d="M16.735,12.97c-0.35-0.202-0.795-0.082-0.996,0.266c-0.202,0.349-0.083,0.796,0.267,0.997
		c0.114,0.065,0.24,0.098,0.363,0.098c0.252,0,0.497-0.131,0.631-0.363C17.203,13.617,17.083,13.172,16.735,12.97L16.735,12.97z
		 M16.735,12.97"/>
	<path fill="#54626A" d="M17.352,9.179c-0.402,0.001-0.729,0.328-0.728,0.731v0.015c0,0.402,0.326,0.729,0.729,0.729
		c0.402,0,0.729-0.326,0.729-0.729V9.906C18.082,9.503,17.755,9.178,17.352,9.179L17.352,9.179z M17.352,9.179"/>
	<path fill="#54626A" d="M13.301,4.18c0.115,0.066,0.24,0.098,0.363,0.098c0.253,0,0.498-0.131,0.633-0.365
		c0.2-0.35,0.081-0.795-0.268-0.996c-0.35-0.201-0.795-0.081-0.995,0.268C12.833,3.533,12.952,3.979,13.301,4.18L13.301,4.18z
		 M13.301,4.18"/>
	<path fill="#54626A" d="M13.314,15.662c-0.349,0.201-0.469,0.647-0.266,0.996c0.135,0.233,0.38,0.364,0.631,0.364
		c0.125,0,0.25-0.032,0.365-0.099c0.349-0.201,0.467-0.647,0.266-0.996S13.663,15.46,13.314,15.662L13.314,15.662z M13.314,15.662"
		/>
	<path fill="#54626A" d="M16.362,6.963c0.125,0,0.25-0.032,0.366-0.099c0.348-0.203,0.467-0.648,0.264-0.997
		c-0.202-0.348-0.649-0.466-0.997-0.264c-0.348,0.203-0.466,0.649-0.264,0.997C15.866,6.833,16.111,6.963,16.362,6.963L16.362,6.963
		z M16.362,6.963"/>
	<path fill="#54626A" d="M14.582,10.436l-3.829-0.261l-0.382-5.608c-0.013-0.193-0.173-0.343-0.367-0.343s-0.354,0.15-0.367,0.343
		l-0.375,5.506l-0.613-0.042c-0.082-0.005-0.162,0.024-0.222,0.079c-0.06,0.056-0.094,0.135-0.094,0.216v0.81
		c0,0.082,0.034,0.16,0.094,0.216c0.054,0.051,0.126,0.08,0.202,0.08c0.007,0,0.014,0,0.02-0.001l0.523-0.035l-0.038,0.551
		c-0.007,0.103,0.029,0.203,0.099,0.277C9.301,12.298,9.399,12.34,9.5,12.34h1.008c0.204,0,0.367-0.165,0.367-0.368
		c0-0.018-0.046-0.689-0.046-0.689l3.753-0.257c0.154-0.01,0.275-0.14,0.275-0.295S14.736,10.446,14.582,10.436L14.582,10.436z
		 M14.582,10.436"/>
</g>
</svg>
