<?xml version="1.0" encoding="utf-8"?>
<!-- Generator: Adobe Illustrator 16.0.0, SVG Export Plug-In . SVG Version: 6.00 Build 0)  -->
<!DOCTYPE svg PUBLIC "-//W3C//DTD SVG 1.1//EN" "http://www.w3.org/Graphics/SVG/1.1/DTD/svg11.dtd">
<svg version="1.1" id="Capa_1" xmlns="http://www.w3.org/2000/svg" xmlns:xlink="http://www.w3.org/1999/xlink" x="0px" y="0px"
	 width="16px" height="16px" viewBox="0 0 16 16" enable-background="new 0 0 16 16" xml:space="preserve">
<g>
	<g>
		<path fill="#54626A" d="M1.356,6.453c-0.474,0-0.857,0.384-0.857,0.857v2.983c0,0.474,0.384,0.857,0.857,0.857
			c0.473,0,0.857-0.384,0.857-0.857V7.31C2.213,6.837,1.829,6.453,1.356,6.453L1.356,6.453z M1.356,6.453"/>
	</g>
	<path fill="#54626A" d="M12.33,5.501c-0.474,0-0.857,0.384-0.857,0.857v1.757h-6.96V6.358c0-0.473-0.384-0.857-0.858-0.857
		c-0.473,0-0.857,0.384-0.857,0.857v4.887c0,0.474,0.384,0.857,0.857,0.857c0.474,0,0.858-0.384,0.858-0.857V9.487h6.96v1.758
		c0,0.474,0.384,0.857,0.857,0.857c0.473,0,0.856-0.384,0.856-0.857V6.358C13.187,5.886,12.803,5.501,12.33,5.501L12.33,5.501z
		 M12.33,5.501"/>
	<path fill="#54626A" d="M14.627,6.453c-0.474,0-0.856,0.384-0.856,0.857v2.983c0,0.474,0.383,0.857,0.856,0.857
		s0.858-0.384,0.858-0.857V7.31C15.485,6.837,15.101,6.453,14.627,6.453L14.627,6.453z M14.627,6.453"/>
</g>
</svg>
