<?xml version="1.0" encoding="utf-8"?>
<!-- Generator: Adobe Illustrator 16.0.0, SVG Export Plug-In . SVG Version: 6.00 Build 0)  -->
<!DOCTYPE svg PUBLIC "-//W3C//DTD SVG 1.1//EN" "http://www.w3.org/Graphics/SVG/1.1/DTD/svg11.dtd">
<svg version="1.1" id="Capa_1" xmlns="http://www.w3.org/2000/svg" xmlns:xlink="http://www.w3.org/1999/xlink" x="0px" y="0px"
	 width="16px" height="16px" viewBox="0 0 16 16" enable-background="new 0 0 16 16" xml:space="preserve">
<g>
	<g>
		<path fill="#54626A" d="M9.302,2.735c0.18,0,0.325-0.146,0.325-0.325c0-0.296,0.242-0.538,0.538-0.538
			c0.297,0,0.538,0.242,0.538,0.538v4.177c0,0.18,0.146,0.325,0.326,0.325s0.325-0.146,0.325-0.325V5.607h2.828v1.413
			c0,0.18,0.146,0.326,0.325,0.326s0.325-0.146,0.325-0.326V2.41c0-0.655-0.533-1.189-1.188-1.189c-0.656,0-1.189,0.534-1.189,1.189
			c0,0.179,0.146,0.325,0.325,0.325s0.325-0.146,0.325-0.325c0-0.296,0.242-0.538,0.539-0.538s0.538,0.242,0.538,0.538v2.547h-2.828
			V2.41c0-0.655-0.533-1.189-1.189-1.189c-0.655,0-1.188,0.534-1.188,1.189C8.977,2.589,9.122,2.735,9.302,2.735L9.302,2.735z
			 M9.302,2.735"/>
		<path fill="#54626A" d="M1.492,6.869c3.129,0,4.653,0.61,6.267,1.255c1.657,0.663,3.371,1.348,6.75,1.348
			c0.359,0,0.65-0.291,0.65-0.65c0-0.36-0.291-0.651-0.65-0.651c-3.129,0-4.652-0.609-6.266-1.255
			c-1.657-0.663-3.37-1.348-6.75-1.348c-0.359,0-0.651,0.291-0.651,0.651C0.841,6.577,1.133,6.869,1.492,6.869L1.492,6.869z
			 M1.492,6.869"/>
		<path fill="#54626A" d="M14.508,10.339c-3.129,0-4.652-0.609-6.266-1.255c-1.657-0.662-3.37-1.348-6.75-1.348
			c-0.359,0-0.651,0.291-0.651,0.65s0.292,0.65,0.651,0.65c3.129,0,4.653,0.61,6.267,1.256c1.657,0.663,3.371,1.348,6.75,1.348
			c0.359,0,0.65-0.291,0.65-0.65S14.867,10.339,14.508,10.339L14.508,10.339z M14.508,10.339"/>
		<path fill="#54626A" d="M14.508,12.509c-3.129,0-4.652-0.609-6.266-1.255c-1.657-0.663-3.37-1.348-6.75-1.348
			c-0.359,0-0.651,0.29-0.651,0.65c0,0.359,0.292,0.651,0.651,0.651c3.129,0,4.653,0.609,6.267,1.254
			c1.657,0.664,3.371,1.349,6.75,1.349c0.359,0,0.65-0.292,0.65-0.65C15.158,12.8,14.867,12.509,14.508,12.509L14.508,12.509z
			 M14.508,12.509"/>
	</g>
</g>
</svg>
