<?xml version="1.0" encoding="utf-8"?>
<!-- Generator: Adobe Illustrator 16.0.0, SVG Export Plug-In . SVG Version: 6.00 Build 0)  -->
<!DOCTYPE svg PUBLIC "-//W3C//DTD SVG 1.1//EN" "http://www.w3.org/Graphics/SVG/1.1/DTD/svg11.dtd">
<svg version="1.1" id="Capa_1" xmlns="http://www.w3.org/2000/svg" xmlns:xlink="http://www.w3.org/1999/xlink" x="0px" y="0px"
	 width="16px" height="16px" viewBox="0 0 16 16" enable-background="new 0 0 16 16" xml:space="preserve">
<g>
	<g>
		<path fill="#54626A" d="M14.663,11.797L8.737,6.778c0.246-0.527,0.386-1.112,0.386-1.731c0-2.271-1.841-4.112-4.112-4.112
			c-2.271,0-4.112,1.841-4.112,4.112c0,2.271,1.841,4.112,4.112,4.112c0.749,0,1.45-0.204,2.055-0.554l1.715,1.453l-0.505,0.598
			c-0.441,0.521-0.376,1.302,0.145,1.743c0.232,0.196,0.516,0.293,0.798,0.293c0.351,0,0.7-0.148,0.944-0.438l0.507-0.598
			l0.507,0.431l-0.8,0.943c-0.441,0.521-0.376,1.302,0.146,1.743c0.232,0.196,0.516,0.293,0.799,0.293
			c0.351,0,0.699-0.148,0.944-0.438l0.799-0.943c0.232,0.196,0.517,0.293,0.799,0.293c0.351,0,0.7-0.149,0.944-0.438
			C15.249,13.019,15.184,12.238,14.663,11.797L14.663,11.797z M4.03,5.424c-0.708,0-1.282-0.574-1.282-1.282
			c0-0.708,0.574-1.282,1.282-1.282c0.708,0,1.282,0.574,1.282,1.282C5.313,4.851,4.738,5.424,4.03,5.424L4.03,5.424z M4.03,5.424"
			/>
	</g>
</g>
</svg>
