<?xml version="1.0" encoding="utf-8"?>
<!-- Generator: Adobe Illustrator 16.0.0, SVG Export Plug-In . SVG Version: 6.00 Build 0)  -->
<!DOCTYPE svg PUBLIC "-//W3C//DTD SVG 1.1//EN" "http://www.w3.org/Graphics/SVG/1.1/DTD/svg11.dtd">
<svg version="1.1" id="Capa_1" xmlns="http://www.w3.org/2000/svg" xmlns:xlink="http://www.w3.org/1999/xlink" x="0px" y="0px"
	 width="16px" height="16px" viewBox="0 0 16 16" enable-background="new 0 0 16 16" xml:space="preserve">
<g>
	<path fill="#54626A" d="M9.938,9.176V6.673H9.032v2.993L9.246,9.8c0.698,0.435,1.115,1.185,1.115,2.006
		c0,1.302-1.06,2.361-2.361,2.361s-2.361-1.06-2.361-2.361c0-0.821,0.417-1.571,1.115-2.006l0.214-0.134v-6.8
		c0-0.569,0.463-1.032,1.032-1.032s1.032,0.463,1.032,1.032v1.091h0.905V2.866c0-1.068-0.869-1.938-1.938-1.938
		S6.063,1.797,6.063,2.866v6.31c-0.837,0.615-1.329,1.58-1.329,2.63c0,1.801,1.465,3.267,3.267,3.267
		c1.801,0,3.267-1.466,3.267-3.267C11.267,10.756,10.774,9.791,9.938,9.176L9.938,9.176z M9.938,9.176"/>
	<rect x="9.032" y="4.862" fill="#54626A" width="0.905" height="0.905"/>
	<path fill="#54626A" d="M7.547,3.203v7.314c-0.578,0.189-0.995,0.734-0.995,1.376c0,0.8,0.648,1.448,1.448,1.448
		s1.448-0.648,1.448-1.448c0-0.642-0.418-1.187-0.996-1.376V3.203H7.547z M7.547,3.203"/>
</g>
</svg>
