<?xml version="1.0" encoding="utf-8"?>
<!-- Generator: Adobe Illustrator 16.0.0, SVG Export Plug-In . SVG Version: 6.00 Build 0)  -->
<!DOCTYPE svg PUBLIC "-//W3C//DTD SVG 1.1//EN" "http://www.w3.org/Graphics/SVG/1.1/DTD/svg11.dtd">
<svg version="1.1" id="Capa_1" xmlns="http://www.w3.org/2000/svg" xmlns:xlink="http://www.w3.org/1999/xlink" x="0px" y="0px"
	 width="140px" height="140px" viewBox="0 0 140 140" enable-background="new 0 0 140 140" xml:space="preserve">
<g>
	<path fill="none" stroke="#C1272D" stroke-width="1.3085" stroke-miterlimit="10" d="M70.298,26.845
		c-17.394,0-31.548,14.154-31.548,31.547c0,4.542,0.929,8.875,2.759,12.883c7.887,17.258,23.013,35.482,27.462,40.656
		c0.33,0.389,0.818,0.612,1.327,0.612c0.515,0,0.999-0.224,1.333-0.612c4.445-5.174,19.571-23.395,27.459-40.656
		c1.833-4.009,2.763-8.342,2.763-12.883C101.847,40.999,87.694,26.845,70.298,26.845L70.298,26.845z M70.298,74.781
		c-9.034,0-16.388-7.353-16.388-16.389c0-9.034,7.354-16.388,16.388-16.388c9.037,0,16.389,7.354,16.389,16.388
		C86.688,67.429,79.335,74.781,70.298,74.781L70.298,74.781z M70.298,74.781"/>
</g>
<circle fill="none" stroke="#C1272D" stroke-width="1.3026" stroke-miterlimit="10" cx="70.301" cy="69.694" r="69"/>
</svg>
