<?xml version="1.0" encoding="utf-8"?>
<!-- Generator: Adobe Illustrator 16.0.0, SVG Export Plug-In . SVG Version: 6.00 Build 0)  -->
<!DOCTYPE svg PUBLIC "-//W3C//DTD SVG 1.1//EN" "http://www.w3.org/Graphics/SVG/1.1/DTD/svg11.dtd">
<svg version="1.1" id="Capa_1" xmlns="http://www.w3.org/2000/svg" xmlns:xlink="http://www.w3.org/1999/xlink" x="0px" y="0px"
	 width="20px" height="20px" viewBox="0 0 20 20" enable-background="new 0 0 20 20" xml:space="preserve">
<circle fill="none" stroke="#54626A" stroke-width="0.7228" stroke-miterlimit="10" cx="10" cy="9.925" r="9.638"/>
<g>
	<g>
		<path fill="none" stroke="#54626A" stroke-width="0.7228" stroke-miterlimit="10" d="M9.987,10.271
			c-1.507,0-2.728-1.464-2.728-3.268c0-1.803,1.221-3.141,2.728-3.141c1.506,0,2.73,1.338,2.73,3.141
			C12.717,8.807,11.493,10.271,9.987,10.271L9.987,10.271z M5.743,14.689c0,0-0.579,0.037-0.833-0.313
			c-0.137-0.191-0.042-0.576,0.053-0.789l0.231-0.527c0,0,0.637-1.426,1.363-2.251c0.446-0.508,0.977-0.393,1.32-0.228
			c0.211,0.102,0.45,0.396,0.625,0.553c0.24,0.217,0.666,0.461,1.359,0.475h0.427c0.694-0.014,1.12-0.258,1.36-0.475
			c0.174-0.157,0.405-0.46,0.615-0.565c0.314-0.157,0.794-0.256,1.229,0.239c0.727,0.826,1.302,2.277,1.302,2.277l0.236,0.518
			c0.098,0.213,0.198,0.596,0.063,0.787c-0.237,0.344-0.775,0.299-0.775,0.299H5.743z M5.743,14.689"/>
	</g>
</g>
</svg>
