<?xml version="1.0" encoding="utf-8"?>
<!-- Generator: Adobe Illustrator 16.0.0, SVG Export Plug-In . SVG Version: 6.00 Build 0)  -->
<!DOCTYPE svg PUBLIC "-//W3C//DTD SVG 1.1//EN" "http://www.w3.org/Graphics/SVG/1.1/DTD/svg11.dtd">
<svg version="1.1" id="Capa_1" xmlns="http://www.w3.org/2000/svg" xmlns:xlink="http://www.w3.org/1999/xlink" x="0px" y="0px"
	 width="16px" height="16px" viewBox="0 0 16 16" enable-background="new 0 0 16 16" xml:space="preserve">
<g>
	<g>
		<path fill="#54626A" d="M14.058,8.525l-2.736,0.732l-1.054-0.608V7.508l1.043-0.598l2.747,0.735
			c0.055,0.016,0.109,0.022,0.165,0.022c0.282,0,0.54-0.189,0.616-0.474c0.092-0.341-0.11-0.691-0.451-0.783l-1.507-0.403
			l1.388-0.797c0.307-0.176,0.412-0.567,0.237-0.873c-0.176-0.306-0.567-0.412-0.873-0.236L12.242,4.9l0.403-1.506
			c0.092-0.341-0.111-0.691-0.452-0.783c-0.339-0.089-0.69,0.111-0.782,0.451l-0.732,2.735l-1.05,0.604L8.636,5.826V4.62
			l2.009-2.011c0.25-0.25,0.25-0.653,0-0.903c-0.249-0.25-0.654-0.25-0.903,0L8.636,2.812V1.205c0-0.353-0.287-0.639-0.641-0.639
			c-0.353,0-0.639,0.286-0.639,0.639v1.598L6.258,1.705c-0.25-0.25-0.654-0.25-0.904,0c-0.25,0.25-0.25,0.654,0,0.903l2.003,2.003
			V5.83l-0.986,0.57L5.322,5.797L4.589,3.063c-0.091-0.34-0.441-0.542-0.782-0.451C3.466,2.703,3.263,3.053,3.355,3.394L3.758,4.9
			L2.367,4.102C2.061,3.926,1.67,4.032,1.495,4.338C1.319,4.644,1.425,5.034,1.731,5.21l1.388,0.797L1.613,6.411
			C1.272,6.502,1.069,6.853,1.161,7.194c0.076,0.285,0.334,0.474,0.616,0.474c0.055,0,0.111-0.007,0.167-0.022l2.748-0.736
			l1.041,0.598l0.001,1.142l-1.055,0.61L1.944,8.525C1.605,8.436,1.252,8.636,1.161,8.976C1.069,9.317,1.272,9.669,1.613,9.759
			l1.5,0.402l-1.384,0.8c-0.306,0.176-0.41,0.566-0.234,0.873c0.118,0.206,0.333,0.32,0.554,0.32c0.108,0,0.218-0.028,0.319-0.087
			l1.391-0.804l-0.405,1.512c-0.092,0.343,0.111,0.691,0.452,0.784c0.055,0.015,0.111,0.021,0.166,0.021
			c0.282,0,0.54-0.188,0.616-0.474l0.736-2.748l1.048-0.604l0.984,0.568v1.234l-2.003,2.003c-0.25,0.249-0.25,0.654,0,0.904
			c0.125,0.124,0.289,0.186,0.453,0.186c0.162,0,0.327-0.062,0.451-0.186l1.099-1.099v1.598c0,0.354,0.286,0.639,0.639,0.639
			c0.354,0,0.641-0.285,0.641-0.639v-1.606l1.106,1.107c0.125,0.124,0.287,0.186,0.452,0.186c0.164,0,0.326-0.062,0.451-0.186
			c0.25-0.25,0.25-0.655,0-0.904l-2.009-2.01v-1.223l0.993-0.573l1.047,0.604l0.735,2.748c0.076,0.285,0.335,0.474,0.617,0.474
			c0.055,0,0.109-0.007,0.166-0.021c0.342-0.093,0.543-0.441,0.451-0.784l-0.406-1.512l1.393,0.804
			c0.102,0.059,0.211,0.087,0.319,0.087c0.221,0,0.435-0.114,0.554-0.32c0.176-0.307,0.071-0.697-0.234-0.873l-1.384-0.799
			l1.501-0.403c0.341-0.09,0.543-0.441,0.451-0.783C14.748,8.636,14.397,8.436,14.058,8.525L14.058,8.525z M8.989,8.649L8,9.221
			L7.011,8.649L7.01,7.505L8,6.936l0.989,0.571V8.649z M8.989,8.649"/>
	</g>
</g>
</svg>
