<?xml version="1.0" encoding="utf-8"?>
<!-- Generator: Adobe Illustrator 16.0.0, SVG Export Plug-In . SVG Version: 6.00 Build 0)  -->
<!DOCTYPE svg PUBLIC "-//W3C//DTD SVG 1.1//EN" "http://www.w3.org/Graphics/SVG/1.1/DTD/svg11.dtd">
<svg version="1.1" id="Capa_1" xmlns="http://www.w3.org/2000/svg" xmlns:xlink="http://www.w3.org/1999/xlink" x="0px" y="0px"
	 width="20px" height="20px" viewBox="0 0 20 20" enable-background="new 0 0 20 20" xml:space="preserve">
<circle fill="none" stroke="#54626A" stroke-width="0.7228" stroke-miterlimit="10" cx="10" cy="9.925" r="9.638"/>
<g>
	<path fill="#54626A" d="M14.923,4.715H5.077c-0.821,0-1.488,0.666-1.488,1.489v5.907c0,0.821,0.666,1.489,1.488,1.489h1.04
		l0.915,1.225c0.062,0.077,0.264,0.31,0.574,0.31c0.14,0,0.356-0.062,0.558-0.325L9.078,13.6h5.846c0.821,0,1.488-0.666,1.488-1.489
		V6.217C16.409,5.396,15.744,4.715,14.923,4.715L14.923,4.715z M15.838,12.126c0,0.51-0.42,0.913-0.915,0.913H8.921
		c-0.093,0-0.17,0.046-0.232,0.109l-0.993,1.334c-0.062,0.076-0.093,0.093-0.093,0.093c-0.016,0-0.078-0.046-0.11-0.093
		l-0.991-1.334c-0.046-0.077-0.139-0.109-0.233-0.109H5.092c-0.511,0-0.915-0.418-0.915-0.913V6.217c0-0.51,0.419-0.914,0.915-0.914
		h9.844c0.512,0,0.915,0.419,0.915,0.914v5.909H15.838z M14.038,9.225c0,0.156-0.123,0.279-0.279,0.279h-7.55
		c-0.155,0-0.278-0.123-0.278-0.279c0-0.155,0.124-0.278,0.278-0.278h7.55C13.915,8.931,14.038,9.056,14.038,9.225L14.038,9.225z
		 M14.038,10.947c0,0.154-0.123,0.277-0.279,0.277h-7.55c-0.155,0-0.278-0.123-0.278-0.277c0-0.156,0.124-0.278,0.278-0.278h7.55
		C13.915,10.652,14.038,10.775,14.038,10.947L14.038,10.947z M5.915,7.52c0-0.155,0.123-0.279,0.278-0.279h4.542
		c0.155,0,0.279,0.124,0.279,0.279c0,0.154-0.124,0.278-0.279,0.278H6.208C6.054,7.816,5.915,7.674,5.915,7.52L5.915,7.52z
		 M5.915,7.52"/>
</g>
</svg>
