<?xml version="1.0" encoding="utf-8"?>
<!-- Generator: Adobe Illustrator 16.0.0, SVG Export Plug-In . SVG Version: 6.00 Build 0)  -->
<!DOCTYPE svg PUBLIC "-//W3C//DTD SVG 1.1//EN" "http://www.w3.org/Graphics/SVG/1.1/DTD/svg11.dtd">
<svg version="1.1" id="Capa_1" xmlns="http://www.w3.org/2000/svg" xmlns:xlink="http://www.w3.org/1999/xlink" x="0px" y="0px"
	 width="20px" height="20px" viewBox="0 0 20 20" enable-background="new 0 0 20 20" xml:space="preserve">
<circle fill="none" stroke="#54626A" stroke-width="0.7228" stroke-miterlimit="10" cx="10" cy="9.925" r="9.638"/>
<g>
	<g>
		<path fill="#54626A" d="M16.195,13.021l-1.882-1.883c-0.375-0.372-0.995-0.361-1.384,0.027l-0.948,0.948
			c-0.06-0.033-0.122-0.067-0.188-0.104c-0.599-0.332-1.418-0.786-2.281-1.649c-0.865-0.866-1.32-1.687-1.652-2.286
			c-0.036-0.063-0.07-0.124-0.103-0.183l0.636-0.635l0.313-0.313C9.096,6.555,9.107,5.935,8.733,5.56L6.85,3.678
			C6.477,3.303,5.856,3.314,5.467,3.704l-0.53,0.533l0.014,0.015C4.773,4.479,4.625,4.74,4.514,5.022
			C4.412,5.291,4.348,5.547,4.32,5.804c-0.249,2.061,0.693,3.943,3.248,6.5c3.531,3.53,6.379,3.265,6.502,3.251
			c0.268-0.031,0.523-0.096,0.784-0.197c0.28-0.108,0.541-0.257,0.768-0.434l0.013,0.01l0.537-0.527
			C16.558,14.018,16.569,13.397,16.195,13.021L16.195,13.021z M15.753,13.988l-0.237,0.236l-0.095,0.09
			c-0.147,0.146-0.404,0.346-0.78,0.492c-0.213,0.083-0.424,0.135-0.638,0.161c-0.027,0.002-2.704,0.231-6.017-3.082
			c-2.817-2.817-3.27-4.44-3.081-6.013c0.025-0.208,0.077-0.418,0.16-0.638c0.148-0.377,0.351-0.634,0.492-0.783l0.328-0.331
			c0.158-0.158,0.404-0.17,0.548-0.026l1.881,1.883c0.145,0.144,0.133,0.39-0.025,0.549l-1.271,1.27l0.118,0.197
			C7.202,8.103,7.27,8.227,7.343,8.361c0.351,0.63,0.829,1.493,1.753,2.416c0.921,0.922,1.783,1.401,2.412,1.748
			c0.135,0.076,0.26,0.146,0.37,0.212l0.199,0.117l1.271-1.271c0.159-0.158,0.405-0.17,0.55-0.026l1.881,1.882
			C15.922,13.584,15.911,13.831,15.753,13.988L15.753,13.988z M15.753,13.988"/>
	</g>
</g>
</svg>
