<?xml version="1.0" encoding="utf-8"?>
<!-- Generator: Adobe Illustrator 16.0.0, SVG Export Plug-In . SVG Version: 6.00 Build 0)  -->
<!DOCTYPE svg PUBLIC "-//W3C//DTD SVG 1.1//EN" "http://www.w3.org/Graphics/SVG/1.1/DTD/svg11.dtd">
<svg version="1.1" id="Capa_1" xmlns="http://www.w3.org/2000/svg" xmlns:xlink="http://www.w3.org/1999/xlink" x="0px" y="0px"
	 width="46px" height="46px" viewBox="0 0 46 46" enable-background="new 0 0 46 46" xml:space="preserve">
<g>
	<path fill="none" stroke="#54626A" stroke-width="1.9114" stroke-miterlimit="10" d="M22.894,2.041
		c-8.47,0-15.361,6.892-15.361,15.362c0,2.21,0.453,4.321,1.343,6.272c3.841,8.403,11.206,17.278,13.373,19.797
		c0.161,0.189,0.398,0.298,0.646,0.298c0.25,0,0.486-0.108,0.649-0.298c2.165-2.52,9.53-11.392,13.371-19.797
		c0.893-1.952,1.345-4.062,1.345-6.272C38.255,8.933,31.364,2.041,22.894,2.041L22.894,2.041z M22.894,25.383
		c-4.399,0-7.979-3.58-7.979-7.98c0-4.399,3.58-7.98,7.979-7.98c4.4,0,7.98,3.581,7.98,7.98
		C30.874,21.803,27.294,25.383,22.894,25.383L22.894,25.383z M22.894,25.383"/>
</g>
</svg>
