<?xml version="1.0" encoding="utf-8"?>
<!-- Generator: Adobe Illustrator 16.0.0, SVG Export Plug-In . SVG Version: 6.00 Build 0)  -->
<!DOCTYPE svg PUBLIC "-//W3C//DTD SVG 1.1//EN" "http://www.w3.org/Graphics/SVG/1.1/DTD/svg11.dtd">
<svg version="1.1" id="Capa_1" xmlns="http://www.w3.org/2000/svg" xmlns:xlink="http://www.w3.org/1999/xlink" x="0px" y="0px"
	 width="16px" height="16px" viewBox="0 0 16 16" enable-background="new 0 0 16 16" xml:space="preserve">
<g>
	<g>
		<path fill="#54626A" d="M8,7.061c0.423,0,0.801,0.13,1.133,0.393c0.333,0.262,0.56,0.594,0.681,0.997
			c0.019,0.102,0.07,0.338,0.151,0.711c0.08,0.372,0.146,0.641,0.197,0.801c0.05,0.161,0.16,0.358,0.332,0.589
			c0.171,0.233,0.398,0.419,0.681,0.561c0.503,0.161,0.86,0.377,1.073,0.649c0.211,0.273,0.316,0.691,0.316,1.255
			c0,0.484-0.176,0.933-0.529,1.346c-0.353,0.413-0.78,0.65-1.283,0.71c-1.03,0.141-1.946-0.02-2.752-0.483
			c-0.806,0.464-1.724,0.624-2.751,0.483c-0.504-0.06-0.932-0.297-1.285-0.71s-0.529-0.861-0.529-1.346
			c0-0.544,0.111-0.958,0.333-1.239c0.222-0.283,0.585-0.514,1.088-0.696c0.303-0.14,0.54-0.327,0.711-0.558
			c0.171-0.233,0.282-0.444,0.333-0.636c0.05-0.191,0.106-0.448,0.166-0.771c0.06-0.322,0.111-0.563,0.151-0.725
			c0.101-0.383,0.317-0.701,0.65-0.952C7.199,7.187,7.577,7.061,8,7.061L8,7.061z M8,7.061"/>
		<path fill="#54626A" d="M13.684,6.365c-0.141-0.121-0.443-0.01-0.906,0.333c-0.464,0.343-0.817,0.665-1.058,0.968
			c-0.263,0.302-0.394,0.66-0.394,1.073c0,0.414,0.131,0.77,0.394,1.073c0.261,0.303,0.584,0.455,0.966,0.455
			c0.264,0,0.51-0.092,0.742-0.273c0.231-0.182,0.398-0.413,0.498-0.695c0.201-0.484,0.287-1.027,0.257-1.632
			C14.153,7.061,13.986,6.627,13.684,6.365L13.684,6.365z M13.684,6.365"/>
		<path fill="#54626A" d="M2.316,6.365c-0.302,0.262-0.468,0.696-0.499,1.3C1.787,8.271,1.873,8.814,2.075,9.298
			c0.1,0.282,0.267,0.514,0.499,0.695c0.231,0.182,0.479,0.273,0.741,0.273c0.383,0,0.706-0.152,0.967-0.455
			s0.394-0.659,0.394-1.073c0-0.413-0.132-0.771-0.394-1.073C4.04,7.363,3.687,7.041,3.224,6.698
			C2.76,6.355,2.458,6.245,2.316,6.365L2.316,6.365z M2.316,6.365"/>
		<path fill="#54626A" d="M9.663,0.894c1.069,0.181,1.784,0.846,2.146,1.995c0.323,1.048,0.232,1.945-0.272,2.691
			c-0.361,0.564-0.856,0.786-1.481,0.665C9.693,6.184,9.39,6.008,9.149,5.716C8.907,5.423,8.767,5.085,8.726,4.702
			c-0.04-0.302-0.06-0.635-0.06-0.997c0-0.363,0.015-0.787,0.045-1.27c0.03-0.483,0.126-0.876,0.289-1.179
			C9.159,0.954,9.381,0.833,9.663,0.894L9.663,0.894z M9.663,0.894"/>
		<path fill="#54626A" d="M6.337,0.894c0.283-0.061,0.504,0.06,0.665,0.362C7.164,1.559,7.26,1.952,7.291,2.435
			c0.03,0.483,0.045,0.907,0.045,1.27c0,0.362-0.021,0.695-0.061,0.997C7.234,5.085,7.093,5.423,6.852,5.716
			C6.61,6.008,6.307,6.184,5.945,6.245C5.118,6.386,4.543,5.992,4.221,5.065C3.878,4.098,3.959,3.15,4.463,2.224
			C4.886,1.478,5.511,1.034,6.337,0.894L6.337,0.894z M6.337,0.894"/>
	</g>
</g>
</svg>
