<?xml version="1.0" encoding="utf-8"?>
<!-- Generator: Adobe Illustrator 16.0.0, SVG Export Plug-In . SVG Version: 6.00 Build 0)  -->
<!DOCTYPE svg PUBLIC "-//W3C//DTD SVG 1.1//EN" "http://www.w3.org/Graphics/SVG/1.1/DTD/svg11.dtd">
<svg version="1.1" id="Capa_1" xmlns="http://www.w3.org/2000/svg" xmlns:xlink="http://www.w3.org/1999/xlink" x="0px" y="0px"
	 width="16px" height="16px" viewBox="0 0 16 16" enable-background="new 0 0 16 16" xml:space="preserve">
<g>
	<path fill="#54626A" d="M8.281,9.137H1.365c-0.572,0-1.038,0.469-1.038,1.042v1.986c0,0.586,0.475,1.074,1.061,1.074h7.2
		c0.585,0,1.044-0.488,1.044-1.074v-1.657C9.632,9.752,9.037,9.137,8.281,9.137L8.281,9.137z M8.281,9.137"/>
	<path fill="#54626A" d="M14.448,3.442H7.297c-0.586,0-1.041,0.448-1.041,1.034v1.792c0.07-0.023,0.191-0.039,0.308-0.049l0.29-0.87
		c0.125-0.373,0.47-0.619,0.86-0.619h1.802c0.291,0,0.568,0.137,0.738,0.374c0.17,0.236,0.216,0.541,0.125,0.818L10.274,6.23
		c0.242,0.002,0.485,0.003,0.718,0.005l0.247-0.743c0.125-0.372,0.472-0.621,0.863-0.621h1.801c0.29,0,0.567,0.14,0.737,0.376
		c0.17,0.238,0.217,0.543,0.124,0.82l-0.087,0.266c0.339,0.094,0.602,0.275,0.837,0.514V4.476
		C15.515,3.89,15.034,3.442,14.448,3.442L14.448,3.442z M14.448,3.442"/>
	<path fill="#54626A" d="M14.468,6.959l-0.096,0.289C14.249,7.62,13.9,7.871,13.51,7.871h-1.801c-0.292,0-0.568-0.142-0.738-0.378
		c-0.123-0.171-0.182-0.381-0.17-0.585L10.049,6.9L9.983,7.104C9.86,7.475,9.514,7.73,9.123,7.73H7.321
		c-0.292,0-0.568-0.146-0.738-0.384C6.489,7.218,6.434,7.065,6.417,6.911C6.188,6.955,5.968,7.044,5.768,7.165L3.565,8.504h4.715
		c1.125,0,2.03,0.881,2.03,2.004v1.657c0,0.25-0.049,0.489-0.148,0.702l4.831-2.89c0.313-0.187,0.521-0.526,0.521-0.89V8.287
		C15.515,7.646,15.066,7.107,14.468,6.959L14.468,6.959z M14.468,6.959"/>
	<path fill="#54626A" d="M7.321,7.215h1.802c0.176,0,0.334-0.111,0.388-0.278l0.394-1.178c0.043-0.125,0.021-0.261-0.057-0.367
		c-0.076-0.107-0.2-0.169-0.332-0.169H7.714c-0.175,0-0.333,0.111-0.387,0.279L6.933,6.68C6.891,6.804,6.912,6.94,6.989,7.047
		C7.066,7.154,7.19,7.215,7.321,7.215L7.321,7.215z M7.321,7.215"/>
	<path fill="#54626A" d="M11.709,7.356h1.801c0.176,0,0.333-0.106,0.388-0.275l0.394-1.173c0.042-0.125,0.021-0.266-0.057-0.372
		c-0.075-0.106-0.201-0.173-0.331-0.173h-1.801c-0.177,0-0.334,0.116-0.389,0.282l-0.395,1.182
		c-0.042,0.125-0.021,0.257,0.058,0.364C11.452,7.298,11.577,7.356,11.709,7.356L11.709,7.356z M11.709,7.356"/>
</g>
</svg>
