<?xml version="1.0" encoding="utf-8"?>
<!-- Generator: Adobe Illustrator 16.0.0, SVG Export Plug-In . SVG Version: 6.00 Build 0)  -->
<!DOCTYPE svg PUBLIC "-//W3C//DTD SVG 1.1//EN" "http://www.w3.org/Graphics/SVG/1.1/DTD/svg11.dtd">
<svg version="1.1" id="Capa_1" xmlns="http://www.w3.org/2000/svg" xmlns:xlink="http://www.w3.org/1999/xlink" x="0px" y="0px"
	 width="28px" height="28px" viewBox="0 0 28 28" enable-background="new 0 0 28 28" xml:space="preserve">
<g>
	<path fill="#FFFFFF" d="M23.524,3.918H4.474c-1.589,0-2.881,1.289-2.881,2.88V18.23c0,1.589,1.289,2.88,2.881,2.88h2.011l1.77,2.37
		c0.119,0.15,0.511,0.601,1.111,0.601c0.27,0,0.689-0.12,1.081-0.631l1.77-2.34h11.312c1.59,0,2.881-1.288,2.881-2.88V6.827
		C26.402,5.238,25.114,3.918,23.524,3.918L23.524,3.918z M25.295,18.258c0,0.989-0.812,1.77-1.771,1.77H11.913
		c-0.18,0-0.331,0.089-0.45,0.212l-1.919,2.58C9.424,22.969,9.362,23,9.362,23c-0.03,0-0.15-0.089-0.211-0.181l-1.919-2.58
		c-0.089-0.15-0.269-0.212-0.45-0.212h-2.28c-0.989,0-1.77-0.811-1.77-1.77V6.827c0-0.989,0.812-1.77,1.77-1.77h19.051
		c0.988,0,1.77,0.812,1.77,1.77v11.431H25.295z M21.813,12.646c0,0.3-0.239,0.539-0.539,0.539H6.663c-0.3,0-0.539-0.239-0.539-0.539
		s0.239-0.539,0.539-0.539h14.612C21.574,12.077,21.813,12.319,21.813,12.646L21.813,12.646z M21.813,15.978
		c0,0.3-0.239,0.539-0.539,0.539H6.663c-0.3,0-0.539-0.239-0.539-0.539c0-0.301,0.239-0.539,0.539-0.539h14.612
		C21.574,15.408,21.813,15.646,21.813,15.978L21.813,15.978z M6.093,9.346c0-0.3,0.239-0.539,0.539-0.539h8.79
		c0.3,0,0.539,0.239,0.539,0.539c0,0.3-0.239,0.539-0.539,0.539H6.663C6.363,9.919,6.093,9.646,6.093,9.346L6.093,9.346z
		 M6.093,9.346"/>
</g>
</svg>
