<?xml version="1.0" encoding="utf-8"?>
<!-- Generator: Adobe Illustrator 16.0.0, SVG Export Plug-In . SVG Version: 6.00 Build 0)  -->
<!DOCTYPE svg PUBLIC "-//W3C//DTD SVG 1.1//EN" "http://www.w3.org/Graphics/SVG/1.1/DTD/svg11.dtd">
<svg version="1.1" id="Capa_1" xmlns="http://www.w3.org/2000/svg" xmlns:xlink="http://www.w3.org/1999/xlink" x="0px" y="0px"
	 width="20px" height="20px" viewBox="0 0 20 20" enable-background="new 0 0 20 20" xml:space="preserve">
<g>
	<g>
		<path fill-rule="evenodd" clip-rule="evenodd" fill="#54626A" d="M12.384,8.592c-0.016-0.005-0.03-0.009-0.045-0.01
			c-2.201-0.395-3.493-0.983-3.498-0.983C8.556,7.436,8.391,7.265,8.375,7.113c-0.013-0.16,0.137-0.354,0.231-0.446
			c0.551-0.279,1.067-0.42,1.537-0.42c1.024,0,1.506,0.68,1.525,0.708c0.668,0.991,1.355,1.492,2.042,1.492
			c0.459,0,0.733-0.23,0.776-0.27c0.452-0.396,0.692-0.882,0.692-1.402C15.181,5.776,14.337,5,14.248,4.924
			C13.233,3.979,11.883,3.5,10.234,3.5c-1.538,0-2.766,0.426-2.813,0.444C4.774,4.832,4.558,7.113,4.81,8.197
			c0.004,0.017,0.009,0.033,0.016,0.05c0.976,2.701,5.073,3.05,5.247,3.066c1.875,0.146,1.963,1.021,1.965,1.073
			c0.065,0.911-1.569,1.193-1.824,1.23C8.578,13.524,8.184,12.9,8.184,12.9c-0.013-0.026-0.029-0.054-0.046-0.075
			c-0.899-1.188-1.249-1.603-2.035-1.622h-0.06c-0.631,0-1.004,0.264-1.204,0.487c-0.513,0.568-0.444,1.386-0.436,1.479
			c0.002,0.02,0.005,0.039,0.009,0.059c0.728,3.045,4.612,3.132,5.053,3.132h0.011c0.238,0.014,0.464,0.02,0.684,0.02
			c5.188,0,5.543-3.788,5.546-3.817C15.932,10.238,13.633,8.949,12.384,8.592L12.384,8.592z M14.811,12.48
			c-0.013,0.13-0.371,3.275-5.295,2.98c-0.008,0-0.042,0-0.051,0c-0.364,0-3.576-0.067-4.167-2.407
			c-0.004-0.103-0.007-0.518,0.209-0.758c0.116-0.13,0.31-0.198,0.574-0.191c0.325,0.009,0.466,0.109,1.32,1.24
			c0.141,0.235,0.778,1.072,2.809,1.174c0.023,0.002,0.048,0.002,0.073-0.002c1.035-0.118,2.758-0.714,2.655-2.17
			c-0.002-0.07-0.06-1.715-2.794-1.933c-0.037-0.002-3.662-0.308-4.462-2.448C5.627,7.707,5.278,5.611,7.716,4.794
			c0.011-0.005,1.135-0.396,2.518-0.396c1.415,0,2.557,0.397,3.409,1.191c0.177,0.16,0.639,0.684,0.637,1.188
			c-0.003,0.261-0.128,0.496-0.381,0.718c-0.002,0.002-0.067,0.053-0.187,0.053c-0.167,0-0.628-0.108-1.295-1.096
			c-0.031-0.043-0.753-1.107-2.272-1.107c-0.629,0-1.301,0.185-2,0.547c-0.029,0.015-0.053,0.031-0.077,0.05
			C8.001,5.999,7.421,6.491,7.481,7.188C7.52,7.656,7.828,8.058,8.43,8.396c0.055,0.026,1.394,0.647,3.727,1.067
			C12.435,9.549,15.014,10.391,14.811,12.48L14.811,12.48z M19.075,11.647c0.143-0.801,0.682-4.857-2.345-7.833
			c-0.231-0.269-2.502-2.78-6.683-2.78c-0.469,0-0.954,0.032-1.437,0.098C8.226,0.93,7.14,0.431,5.781,0.431
			c-1.463,0-2.763,0.565-3.87,1.686c-0.024,0.026-2.51,2.68-0.842,6.1c-0.125,0.576-0.414,2.448,0.457,4.729
			c0.049,0.172,1.225,4.227,5.662,5.551c0.06,0.021,1.498,0.563,3.479,0.563c0.309,0,0.616-0.014,0.92-0.04
			c0.341,0.154,1.338,0.55,2.564,0.55c1.468,0,2.776-0.578,3.774-1.658C18.028,17.809,20.414,15.366,19.075,11.647L19.075,11.647z
			 M17.277,17.287c-0.847,0.917-1.899,1.383-3.126,1.383c-1.264,0-2.271-0.506-2.279-0.51c-0.064-0.033-0.134-0.051-0.204-0.051
			c-0.016,0-0.031,0.002-0.047,0.002c-0.312,0.031-0.632,0.046-0.954,0.046c-1.808,0-3.145-0.496-3.189-0.514
			c-3.982-1.188-5.073-4.901-5.097-4.979c-0.929-2.439-0.408-4.36-0.401-4.378c0.03-0.112,0.02-0.23-0.036-0.332
			C0.427,5.043,2.476,2.832,2.557,2.744c0.925-0.936,2.011-1.411,3.224-1.411c1.405,0,2.5,0.644,2.508,0.65
			c0.091,0.055,0.198,0.077,0.3,0.062c0.493-0.072,0.982-0.109,1.458-0.109c3.884,0,5.985,2.448,6.006,2.473
			c0.008,0.013,0.02,0.024,0.029,0.034c2.956,2.891,2.095,7.106,2.087,7.147c-0.018,0.087-0.012,0.174,0.018,0.256
			C19.411,15.073,17.376,17.186,17.277,17.287L17.277,17.287z M17.277,17.287"/>
	</g>
</g>
</svg>
