<?xml version="1.0" encoding="utf-8"?>
<!-- Generator: Adobe Illustrator 16.0.0, SVG Export Plug-In . SVG Version: 6.00 Build 0)  -->
<!DOCTYPE svg PUBLIC "-//W3C//DTD SVG 1.1//EN" "http://www.w3.org/Graphics/SVG/1.1/DTD/svg11.dtd">
<svg version="1.1" id="Capa_1" xmlns="http://www.w3.org/2000/svg" xmlns:xlink="http://www.w3.org/1999/xlink" x="0px" y="0px"
	 width="140px" height="140px" viewBox="0 0 140 140" enable-background="new 0 0 140 140" xml:space="preserve">
<g>
	<g>
		<g>
			<path fill-rule="evenodd" clip-rule="evenodd" fill="none" stroke="#C1272D" stroke-width="1.3026" stroke-miterlimit="10" d="
				M109.551,98.821L91.516,80.785c-0.097-0.094-0.208-0.161-0.309-0.249c3.548-5.384,5.619-11.83,5.619-18.759
				c0-18.851-15.28-34.131-34.132-34.131c-18.85,0-34.13,15.28-34.13,34.131s15.28,34.132,34.13,34.132
				c6.93,0,13.375-2.072,18.758-5.62c0.089,0.101,0.155,0.213,0.252,0.308l18.035,18.036c2.709,2.708,7.102,2.708,9.812,0
				C112.259,105.923,112.259,101.53,109.551,98.821L109.551,98.821z M62.694,84.078c-12.316,0-22.298-9.986-22.298-22.301
				c0-12.317,9.982-22.299,22.298-22.299c12.316,0,22.3,9.982,22.3,22.299C84.994,74.092,75.01,84.078,62.694,84.078L62.694,84.078z
				 M62.694,84.078"/>
		</g>
	</g>
	<circle fill="none" stroke="#C1272D" stroke-width="1.3026" stroke-miterlimit="10" cx="70.301" cy="69.694" r="69"/>
</g>
</svg>
