<?xml version="1.0" encoding="utf-8"?>
<!-- Generator: Adobe Illustrator 16.0.0, SVG Export Plug-In . SVG Version: 6.00 Build 0)  -->
<!DOCTYPE svg PUBLIC "-//W3C//DTD SVG 1.1//EN" "http://www.w3.org/Graphics/SVG/1.1/DTD/svg11.dtd">
<svg version="1.1" id="Capa_1" xmlns="http://www.w3.org/2000/svg" xmlns:xlink="http://www.w3.org/1999/xlink" x="0px" y="0px"
	 width="20px" height="20px" viewBox="0 0 20 20" enable-background="new 0 0 20 20" xml:space="preserve">
<circle fill="none" stroke="#54626A" stroke-width="0.7228" stroke-miterlimit="10" cx="10" cy="9.925" r="9.638"/>
<g>
	<path fill="none" stroke="#54626A" stroke-width="0.7228" stroke-miterlimit="10" d="M9.999,3.735
		c-2.543,0-4.612,2.069-4.612,4.613c0,0.663,0.136,1.297,0.403,1.883c1.153,2.523,3.364,5.188,4.015,5.944
		c0.049,0.057,0.12,0.09,0.194,0.09c0.075,0,0.146-0.033,0.195-0.09c0.649-0.757,2.861-3.42,4.014-5.944
		c0.269-0.586,0.404-1.22,0.404-1.883C14.611,5.804,12.542,3.735,9.999,3.735L9.999,3.735z M9.999,10.743
		c-1.321,0-2.396-1.075-2.396-2.396c0-1.321,1.075-2.396,2.396-2.396s2.396,1.075,2.396,2.396
		C12.396,9.668,11.32,10.743,9.999,10.743L9.999,10.743z M9.999,10.743"/>
</g>
</svg>
