<?xml version="1.0" encoding="utf-8"?>
<!-- Generator: Adobe Illustrator 16.0.0, SVG Export Plug-In . SVG Version: 6.00 Build 0)  -->
<!DOCTYPE svg PUBLIC "-//W3C//DTD SVG 1.1//EN" "http://www.w3.org/Graphics/SVG/1.1/DTD/svg11.dtd">
<svg version="1.1" id="Capa_1" xmlns="http://www.w3.org/2000/svg" xmlns:xlink="http://www.w3.org/1999/xlink" x="0px" y="0px"
	 width="16px" height="16px" viewBox="0 0 16 16" enable-background="new 0 0 16 16" xml:space="preserve">
<g>
	<circle fill="#C1322C" cx="7.988" cy="8" r="8"/>
	<path fill="#FFFFFF" d="M4.024,11.132c0,0-0.124-2.658,0.087-3.168c0,0,0.162-0.732,0.807-0.894c0,0,2.72-0.323,6.435,0
		c0,0,0.72,0.149,0.819,0.932c0,0,0.298,2.199-0.013,3.713c0,0-0.087,0.783-0.981,0.882c0,0-3.54,0.262-6.123,0
		C5.055,12.597,4.061,12.585,4.024,11.132z"/>
	<g>
		<polygon fill="#FFFFFF" points="6.164,4.169 5.768,2.697 5.16,2.697 5.871,4.924 5.871,6.447 6.427,6.447 6.427,4.924 7.108,2.69 
			6.559,2.69 		"/>
		<path fill="#FFFFFF" d="M9.979,3.642v2.146C9.55,6.217,9.533,5.891,9.533,5.891V3.657H9.042L9.034,6.008
			c0,0.255,0.097,0.35,0.097,0.35c0.378,0.378,0.849-0.211,0.849-0.211v0.286h0.498V3.642H9.979z"/>
		<path fill="#FFFFFF" d="M7.863,3.591c-0.75,0-0.727,0.754-0.727,0.754S7.13,5.093,7.13,5.788c0,0.69,0.733,0.681,0.733,0.681
			c0.768,0,0.739-0.718,0.739-0.718V4.293C8.602,3.542,7.863,3.591,7.863,3.591z M8.068,5.72c0,0,0.022,0.263-0.186,0.263
			c0,0-0.238,0.059-0.238-0.263V4.306c0,0-0.01-0.214,0.218-0.225c0,0,0.2-0.008,0.206,0.231V5.72z"/>
	</g>
	<g>
		<path fill="#C12E30" d="M6.297,8.868l0.51-0.007v2.292c0,0-0.015,0.359,0.445-0.101V8.861h0.525v2.844H7.26v-0.301
			c0,0-0.969,0.868-0.969-0.166S6.297,8.868,6.297,8.868z"/>
		<polygon fill="#C12E30" points="5.052,11.691 5.052,8.438 4.448,8.438 4.448,7.913 6.222,7.913 6.222,8.444 5.619,8.444 
			5.619,11.691 		"/>
		<path fill="#C12E30" d="M8.72,9.13V7.917H8.204v3.781l0.516,0.007v-0.287c0.94,0.774,0.976-0.223,0.976-0.223v-1.75
			C9.632,8.29,8.72,9.13,8.72,9.13z M9.187,11.06c0,0-0.05,0.308-0.473,0.064V9.416c0,0,0.473-0.344,0.473,0.123
			C9.187,10.005,9.187,11.06,9.187,11.06z"/>
		<path fill="#C12E30" d="M11.624,10.371V9.563c0,0-0.041-0.746-0.745-0.746c0,0-0.771-0.02-0.771,0.772s0,1.413,0,1.413
			s0.021,0.714,0.823,0.714c0,0,0.688-0.025,0.688-0.621v-0.398h-0.513v0.29c0,0-0.016,0.264-0.228,0.264c0,0-0.27,0.037-0.27-0.305
			s0-0.575,0-0.575H11.624z M10.614,9.59c0,0-0.005-0.295,0.238-0.295s0.265,0.3,0.265,0.3v0.342h-0.508L10.614,9.59z"/>
	</g>
</g>
</svg>
