<?xml version="1.0" encoding="utf-8"?>
<!-- Generator: Adobe Illustrator 16.0.0, SVG Export Plug-In . SVG Version: 6.00 Build 0)  -->
<!DOCTYPE svg PUBLIC "-//W3C//DTD SVG 1.1//EN" "http://www.w3.org/Graphics/SVG/1.1/DTD/svg11.dtd">
<svg version="1.1" id="Capa_1" xmlns="http://www.w3.org/2000/svg" xmlns:xlink="http://www.w3.org/1999/xlink" x="0px" y="0px"
	 width="16px" height="16px" viewBox="0 0 16 16" enable-background="new 0 0 16 16" xml:space="preserve">
<g>
	<circle fill="#178DB4" cx="8.026" cy="8.036" r="8"/>
	<path fill="#FFFFFF" d="M5.38,8.886V4.995c0,0-0.115-1.202,0.967-1.202c0,0,0.967-0.077,0.967,0.754V5.75h3.16
		c0,0,0.802,0.189,0.731,1.085c0,0-0.095,0.802-0.92,0.873H7.338v1.061c0,0-0.039,0.849,0.731,0.849h2.193
		c0,0,0.92,0.023,0.943,1.037c0,0-0.048,0.873-0.967,0.943H8.092C8.092,11.598,5.38,11.45,5.38,8.886z"/>
</g>
</svg>
