<?xml version="1.0" encoding="utf-8"?>
<!-- Generator: Adobe Illustrator 16.0.0, SVG Export Plug-In . SVG Version: 6.00 Build 0)  -->
<!DOCTYPE svg PUBLIC "-//W3C//DTD SVG 1.1//EN" "http://www.w3.org/Graphics/SVG/1.1/DTD/svg11.dtd">
<svg version="1.1" id="Capa_1" xmlns="http://www.w3.org/2000/svg" xmlns:xlink="http://www.w3.org/1999/xlink" x="0px" y="0px"
	 width="24px" height="24px" viewBox="0 0 24 24" enable-background="new 0 0 24 24" xml:space="preserve">
<g>
	<path fill="#FFFFFF" d="M21.509,5.125H2.866c-0.375,0-0.678,0.303-0.678,0.678v13.184c0,0.374,0.304,0.679,0.678,0.679h18.643
		c0.375,0,0.679-0.305,0.679-0.679V5.804C22.188,5.429,21.884,5.125,21.509,5.125L21.509,5.125z M21.281,18.617H3.093V6.174h18.188
		V18.617z M20.831,18.309"/>
	<path fill="#FFFFFF" d="M5.321,9.677l6.511,4.012c0.109,0.067,0.232,0.1,0.356,0.1s0.247-0.032,0.356-0.1l6.51-4.012
		c0.319-0.197,0.418-0.614,0.222-0.933s-0.614-0.418-0.933-0.221l-6.155,3.792L6.033,8.522C5.714,8.326,5.296,8.425,5.1,8.744
		C4.903,9.063,5.002,9.48,5.321,9.677L5.321,9.677z M5.321,9.677"/>
</g>
</svg>
