<?xml version="1.0" encoding="utf-8"?>
<!-- Generator: Adobe Illustrator 16.0.0, SVG Export Plug-In . SVG Version: 6.00 Build 0)  -->
<!DOCTYPE svg PUBLIC "-//W3C//DTD SVG 1.1//EN" "http://www.w3.org/Graphics/SVG/1.1/DTD/svg11.dtd">
<svg version="1.1" id="Capa_1" xmlns="http://www.w3.org/2000/svg" xmlns:xlink="http://www.w3.org/1999/xlink" x="0px" y="0px"
	 width="20px" height="20px" viewBox="0 0 20 20" enable-background="new 0 0 20 20" xml:space="preserve">
<g>
	<path fill="#54626A" stroke="#54626A" stroke-width="0.2148" stroke-miterlimit="10" d="M15.469,5.734H4.531
		c-0.22,0-0.398,0.178-0.398,0.398v7.736c0,0.219,0.178,0.397,0.398,0.397h10.938c0.221,0,0.398-0.179,0.398-0.397V6.133
		C15.867,5.913,15.689,5.734,15.469,5.734L15.469,5.734z M15.336,13.65H4.664V6.35h10.672V13.65z M15.071,13.47"/>
	<path fill="#54626A" stroke="#54626A" stroke-width="0.2148" stroke-miterlimit="10" d="M5.971,8.405l3.82,2.354
		c0.064,0.039,0.136,0.059,0.208,0.059s0.145-0.02,0.208-0.059l3.82-2.354c0.188-0.115,0.245-0.36,0.132-0.548
		c-0.116-0.187-0.362-0.245-0.548-0.129L10,9.953L6.389,7.728C6.202,7.612,5.957,7.67,5.841,7.857
		C5.726,8.045,5.784,8.29,5.971,8.405L5.971,8.405z M5.971,8.405"/>
</g>
<circle fill="none" stroke="#54626A" stroke-width="0.7228" stroke-miterlimit="10" cx="10" cy="9.925" r="9.638"/>
</svg>
