<?xml version="1.0" encoding="utf-8"?>
<!-- Generator: Adobe Illustrator 16.0.0, SVG Export Plug-In . SVG Version: 6.00 Build 0)  -->
<!DOCTYPE svg PUBLIC "-//W3C//DTD SVG 1.1//EN" "http://www.w3.org/Graphics/SVG/1.1/DTD/svg11.dtd">
<svg version="1.1" id="Capa_1" xmlns="http://www.w3.org/2000/svg" xmlns:xlink="http://www.w3.org/1999/xlink" x="0px" y="0px"
	 width="140px" height="140px" viewBox="0 0 140 140" enable-background="new 0 0 140 140" xml:space="preserve">
<g>
	<g>
		<g>
			<path fill="none" stroke="#C1272D" stroke-width="1.3026" stroke-miterlimit="10" d="M110.067,65.236
				c1.527-1.682,1.384-4.256-0.33-5.755L72.089,26.539c-1.71-1.496-4.449-1.467-6.127,0.063l-37.776,34.64
				c-1.674,1.529-1.762,4.105-0.187,5.737l0.946,0.983c1.575,1.641,4.113,1.833,5.671,0.44l2.826-2.529v37.017
				c0,2.272,1.842,4.112,4.111,4.112h14.723c2.274,0,4.113-1.84,4.113-4.112V76.989h18.782v25.902
				c-0.031,2.272,1.593,4.105,3.865,4.105H98.64c2.272,0,4.113-1.833,4.113-4.105V66.393c0,0,0.775,0.683,1.745,1.531
				c0.959,0.841,2.977,0.167,4.504-1.513L110.067,65.236z M110.067,65.236"/>
		</g>
	</g>
	<circle fill="none" stroke="#C1272D" stroke-width="1.3026" stroke-miterlimit="10" cx="70.301" cy="69.694" r="69"/>
</g>
</svg>
