<?xml version="1.0" encoding="utf-8"?>
<!-- Generator: Adobe Illustrator 16.0.0, SVG Export Plug-In . SVG Version: 6.00 Build 0)  -->
<!DOCTYPE svg PUBLIC "-//W3C//DTD SVG 1.1//EN" "http://www.w3.org/Graphics/SVG/1.1/DTD/svg11.dtd">
<svg version="1.1" id="Capa_1" xmlns="http://www.w3.org/2000/svg" xmlns:xlink="http://www.w3.org/1999/xlink" x="0px" y="0px"
	 width="140px" height="140px" viewBox="0 0 140 140" enable-background="new 0 0 140 140" xml:space="preserve">
<g>
	<g>
		<path fill="none" stroke="#C1272D" stroke-width="1.3026" stroke-miterlimit="10" d="M48.881,35.38
			c0,4.773-3.872,8.642-8.641,8.642c-4.774,0-8.641-3.869-8.641-8.642c0-4.775,3.867-8.642,8.641-8.642
			C45.009,26.738,48.881,30.604,48.881,35.38L48.881,35.38z M48.881,35.38"/>
		<path fill="none" stroke="#C1272D" stroke-width="1.3026" stroke-miterlimit="10" d="M30.597,74.305h0.86v17.139
			c0,2.358,1.927,4.286,4.282,4.286h8.999c2.358,0,4.287-1.928,4.287-4.286v-1c-0.789-1.5-1.287-3.212-1.287-4.997V63.02
			c0-4.355,2.645-8.143,6.426-9.786v-1.712c0-2.357-1.927-4.286-4.286-4.286H30.597c-2.356,0-4.286,1.928-4.286,4.286v18.496
			C26.311,72.376,28.167,74.305,30.597,74.305L30.597,74.305z M30.597,74.305"/>
		<path fill="none" stroke="#C1272D" stroke-width="1.3026" stroke-miterlimit="10" d="M108.729,35.38
			c0,4.773-3.87,8.642-8.64,8.642c-4.775,0-8.643-3.869-8.643-8.642c0-4.775,3.867-8.642,8.643-8.642
			C104.858,26.738,108.729,30.604,108.729,35.38L108.729,35.38z M108.729,35.38"/>
		<path fill="none" stroke="#C1272D" stroke-width="1.3026" stroke-miterlimit="10" d="M86.09,51.448v1.717
			c3.784,1.641,6.428,5.425,6.428,9.781v22.357c0,1.785-0.429,3.497-1.287,4.997v1.001c0,2.358,1.929,4.285,4.287,4.285h9
			c2.354,0,4.281-1.927,4.281-4.285V74.16h0.858c2.357,0,4.286-1.928,4.286-4.285V51.448c0-2.356-1.929-4.285-4.286-4.285h-19.28
			C88.019,47.163,86.09,49.092,86.09,51.448L86.09,51.448z M86.09,51.448"/>
		<path fill="none" stroke="#C1272D" stroke-width="1.3026" stroke-miterlimit="10" d="M54.238,63.02v22.427
			c0,2.354,1.927,4.282,4.282,4.282h1.646v20.212c0,2.357,1.925,4.285,4.283,4.285h11.5c2.354,0,4.281-1.928,4.281-4.285V89.657
			h1.644c2.356,0,4.286-1.928,4.286-4.284V63.02c0-2.358-1.93-4.287-4.286-4.287H58.52C56.092,58.733,54.238,60.661,54.238,63.02
			L54.238,63.02z M54.238,63.02"/>
		<path fill="none" stroke="#C1272D" stroke-width="1.3026" stroke-miterlimit="10" d="M80.088,45.233
			c0,5.485-4.441,9.927-9.925,9.927c-5.482,0-9.927-4.442-9.927-9.927c0-5.482,4.444-9.922,9.927-9.922
			C75.646,35.312,80.088,39.751,80.088,45.233L80.088,45.233z M80.088,45.233"/>
	</g>
	<circle fill="none" stroke="#C1272D" stroke-width="1.3026" stroke-miterlimit="10" cx="70.301" cy="69.694" r="69"/>
</g>
</svg>
