<?xml version="1.0" encoding="utf-8"?>
<!-- Generator: Adobe Illustrator 16.0.0, SVG Export Plug-In . SVG Version: 6.00 Build 0)  -->
<!DOCTYPE svg PUBLIC "-//W3C//DTD SVG 1.1//EN" "http://www.w3.org/Graphics/SVG/1.1/DTD/svg11.dtd">
<svg version="1.1" id="Capa_1" xmlns="http://www.w3.org/2000/svg" xmlns:xlink="http://www.w3.org/1999/xlink" x="0px" y="0px"
	 width="16px" height="16px" viewBox="0 0 16 16" enable-background="new 0 0 16 16" xml:space="preserve">
<g>
	<circle fill="#B52C2D" cx="8" cy="8.035" r="8"/>
	<path fill="#FFFFFF" d="M6.05,8.42c0,0,0.132,0.041,0.075,0.289l-0.15,0.496c0,0-0.098,0.093-0.248,0.018
		c0,0-1.204-0.431-0.96-2.442c0,0,0.232-1.708,1.93-2.348c1.697-0.639,3.137-0.012,3.312,0.081c0.174,0.093,1.708,1.023,1.569,2.848
		c-0.141,1.825-1.046,2.487-1.232,2.65c-0.186,0.163-1.836,1.104-2.754-0.104l-0.465,1.685c0,0-0.232,0.582-0.43,0.756
		c0,0-0.57-0.162-0.593-0.232c0,0-0.035-0.79,0.058-1.058l0.686-2.835c0,0-0.302-0.802-0.082-1.336c0,0,0.349-0.942,1.069-0.779
		c0,0,0.651,0.151,0.511,1L7.963,8.443c0,0-0.174,0.627,0.116,0.883c0,0,0.488,0.627,1.348,0.047c0,0,0.616-0.245,0.86-1.849
		c0,0,0.197-1.429-0.581-2.022c0,0-0.884-0.848-2.487-0.325c0,0-1.209,0.418-1.453,1.708C5.767,6.886,5.543,7.631,6.05,8.42z"/>
</g>
</svg>
