<?xml version="1.0" encoding="utf-8"?>
<!-- Generator: Adobe Illustrator 16.0.0, SVG Export Plug-In . SVG Version: 6.00 Build 0)  -->
<!DOCTYPE svg PUBLIC "-//W3C//DTD SVG 1.1//EN" "http://www.w3.org/Graphics/SVG/1.1/DTD/svg11.dtd">
<svg version="1.1" id="Capa_1" xmlns="http://www.w3.org/2000/svg" xmlns:xlink="http://www.w3.org/1999/xlink" x="0px" y="0px"
	 width="16px" height="16px" viewBox="0 0 16 16" enable-background="new 0 0 16 16" xml:space="preserve">
<g>
	<path fill="#54626A" d="M14.028,1.354H1.972c-0.537,0-0.973,0.436-0.973,0.973v11.348c0,0.538,0.436,0.974,0.973,0.974h12.057
		c0.537,0,0.973-0.436,0.973-0.974V2.326C15.001,1.789,14.565,1.354,14.028,1.354L14.028,1.354z M12.406,2.829
		c0.375,0,0.678,0.303,0.678,0.678c0,0.374-0.303,0.678-0.678,0.678s-0.678-0.304-0.678-0.678
		C11.729,3.132,12.031,2.829,12.406,2.829L12.406,2.829z M8.113,2.829c0.375,0,0.678,0.303,0.678,0.678
		c0,0.374-0.304,0.678-0.678,0.678c-0.374,0-0.678-0.304-0.678-0.678C7.435,3.132,7.739,2.829,8.113,2.829L8.113,2.829z
		 M5.854,2.829c0.374,0,0.678,0.303,0.678,0.678c0,0.374-0.304,0.678-0.678,0.678c-0.375,0-0.678-0.304-0.678-0.678
		C5.175,3.132,5.479,2.829,5.854,2.829L5.854,2.829z M3.594,2.829c0.375,0,0.678,0.303,0.678,0.678c0,0.374-0.303,0.678-0.678,0.678
		c-0.374,0-0.677-0.304-0.677-0.678C2.917,3.132,3.22,2.829,3.594,2.829L3.594,2.829z M13.197,12.883H2.803V5.691h10.394V12.883z
		 M13.197,12.883"/>
	<path fill="#54626A" d="M7.073,10.893c0.027,0.025,0.062,0.04,0.096,0.04c0.035,0,0.069-0.015,0.096-0.04l3.323-3.324
		c0.053-0.052,0.053-0.138,0-0.19c-0.053-0.054-0.138-0.054-0.192,0L7.073,10.7C7.021,10.754,7.021,10.84,7.073,10.893L7.073,10.893
		z M7.073,10.893"/>
	<path fill="#54626A" d="M5.507,10.933c0.035,0,0.07-0.015,0.096-0.04l3.323-3.324c0.053-0.052,0.053-0.138,0-0.19
		c-0.053-0.054-0.138-0.054-0.191,0L5.412,10.7c-0.053,0.054-0.053,0.14,0,0.192C5.438,10.918,5.473,10.933,5.507,10.933
		L5.507,10.933z M5.507,10.933"/>
</g>
</svg>
