<?xml version="1.0" encoding="utf-8"?>
<!-- Generator: Adobe Illustrator 16.0.0, SVG Export Plug-In . SVG Version: 6.00 Build 0)  -->
<!DOCTYPE svg PUBLIC "-//W3C//DTD SVG 1.1//EN" "http://www.w3.org/Graphics/SVG/1.1/DTD/svg11.dtd">
<svg version="1.1" id="Capa_1" xmlns="http://www.w3.org/2000/svg" xmlns:xlink="http://www.w3.org/1999/xlink" x="0px" y="0px"
	 width="18px" height="18px" viewBox="0 0 18 18" enable-background="new 0 0 18 18" xml:space="preserve">
<g>
	<path fill="none" stroke="#54626A" stroke-width="0.4705" stroke-miterlimit="10" d="M4.878,2.19c0,0.926-0.751,1.676-1.676,1.676
		c-0.926,0-1.677-0.75-1.677-1.676c0-0.926,0.75-1.677,1.677-1.677C4.127,0.514,4.878,1.264,4.878,2.19L4.878,2.19z M4.878,2.19"/>
	<path fill="none" stroke="#54626A" stroke-width="0.4705" stroke-miterlimit="10" d="M1.332,9.742h0.167v3.325
		c0,0.457,0.374,0.832,0.831,0.832h1.746c0.457,0,0.832-0.375,0.832-0.832v-0.194c-0.153-0.291-0.25-0.623-0.25-0.969V7.552
		c0-0.845,0.513-1.58,1.247-1.898V5.322c0-0.458-0.374-0.831-0.832-0.831h-3.74C0.874,4.491,0.5,4.864,0.5,5.322V8.91
		C0.5,9.367,0.86,9.742,1.332,9.742L1.332,9.742z M1.332,9.742"/>
	<path fill="none" stroke="#54626A" stroke-width="0.4705" stroke-miterlimit="10" d="M16.488,2.19c0,0.926-0.751,1.676-1.676,1.676
		c-0.927,0-1.677-0.75-1.677-1.676c0-0.926,0.75-1.677,1.677-1.677C15.737,0.514,16.488,1.264,16.488,2.19L16.488,2.19z
		 M16.488,2.19"/>
	<path fill="none" stroke="#54626A" stroke-width="0.4705" stroke-miterlimit="10" d="M12.097,5.308v0.333
		c0.734,0.318,1.247,1.053,1.247,1.897v4.337c0,0.347-0.083,0.679-0.25,0.97v0.194c0,0.457,0.374,0.831,0.832,0.831h1.745
		c0.457,0,0.831-0.374,0.831-0.831V9.714h0.167c0.457,0,0.831-0.374,0.831-0.832V5.308c0-0.458-0.374-0.832-0.831-0.832h-3.741
		C12.471,4.476,12.097,4.85,12.097,5.308L12.097,5.308z M12.097,5.308"/>
	<path fill="none" stroke="#54626A" stroke-width="0.4705" stroke-miterlimit="10" d="M5.917,7.552v4.351
		c0,0.456,0.374,0.83,0.831,0.83h0.319v3.921c0,0.458,0.374,0.832,0.831,0.832h2.23c0.457,0,0.831-0.374,0.831-0.832v-3.934h0.318
		c0.458,0,0.832-0.374,0.832-0.832V7.552c0-0.457-0.374-0.832-0.832-0.832h-4.53C6.277,6.721,5.917,7.095,5.917,7.552L5.917,7.552z
		 M5.917,7.552"/>
	<path fill="none" stroke="#54626A" stroke-width="0.4705" stroke-miterlimit="10" d="M10.933,4.102
		c0,1.064-0.862,1.926-1.925,1.926c-1.064,0-1.926-0.862-1.926-1.926c0-1.063,0.862-1.925,1.926-1.925
		C10.07,2.177,10.933,3.039,10.933,4.102L10.933,4.102z M10.933,4.102"/>
</g>
</svg>
