<?xml version="1.0" encoding="utf-8"?>
<!-- Generator: Adobe Illustrator 16.0.0, SVG Export Plug-In . SVG Version: 6.00 Build 0)  -->
<!DOCTYPE svg PUBLIC "-//W3C//DTD SVG 1.1//EN" "http://www.w3.org/Graphics/SVG/1.1/DTD/svg11.dtd">
<svg version="1.1" id="Capa_1" xmlns="http://www.w3.org/2000/svg" xmlns:xlink="http://www.w3.org/1999/xlink" x="0px" y="0px"
	 width="28px" height="28px" viewBox="0 0 28 28" enable-background="new 0 0 28 28" xml:space="preserve">
<g>
	<path fill="none" stroke="#FFFFFF" stroke-width="1.5" stroke-miterlimit="10" d="M13.894,0.906c-5.277,0-9.571,4.294-9.571,9.571
		c0,1.377,0.282,2.692,0.836,3.908c2.393,5.236,6.982,10.765,8.332,12.335c0.1,0.117,0.248,0.186,0.402,0.186
		c0.156,0,0.303-0.068,0.404-0.186c1.349-1.57,5.937-7.098,8.331-12.335c0.557-1.216,0.838-2.531,0.838-3.908
		C23.466,5.2,19.172,0.906,13.894,0.906L13.894,0.906z M13.894,15.449c-2.741,0-4.972-2.23-4.972-4.972
		c0-2.741,2.231-4.972,4.972-4.972c2.742,0,4.972,2.23,4.972,4.972C18.866,13.219,16.636,15.449,13.894,15.449L13.894,15.449z
		 M13.894,15.449"/>
</g>
</svg>
