<?xml version="1.0" encoding="utf-8"?>
<!-- Generator: Adobe Illustrator 16.0.0, SVG Export Plug-In . SVG Version: 6.00 Build 0)  -->
<!DOCTYPE svg PUBLIC "-//W3C//DTD SVG 1.1//EN" "http://www.w3.org/Graphics/SVG/1.1/DTD/svg11.dtd">
<svg version="1.1" id="Capa_1" xmlns="http://www.w3.org/2000/svg" xmlns:xlink="http://www.w3.org/1999/xlink" x="0px" y="0px"
	 width="16px" height="16px" viewBox="0 0 16 16" enable-background="new 0 0 16 16" xml:space="preserve">
<g>
	<path fill="#54626A" d="M2.952,5.391c-0.105,0-0.21-0.049-0.277-0.14C2.561,5.096,2.593,4.88,2.746,4.767l1.909-1.414
		c0.153-0.114,0.37-0.082,0.484,0.072c0.113,0.153,0.081,0.37-0.072,0.484L3.158,5.323C3.096,5.368,3.023,5.391,2.952,5.391
		L2.952,5.391z M2.952,5.391"/>
	<path fill="#54626A" d="M3.141,7.207c-0.108,0-0.215-0.052-0.283-0.147C2.748,6.905,2.785,6.689,2.94,6.578L7.03,3.682
		c0.156-0.11,0.372-0.074,0.483,0.082C7.623,3.92,7.586,4.136,7.43,4.246L3.34,7.143C3.28,7.186,3.21,7.207,3.141,7.207L3.141,7.207
		z M3.141,7.207"/>
	<path fill="#54626A" d="M14.467,1.37H1.534c-0.319,0-0.58,0.261-0.58,0.58v9.966c0,0.319,0.26,0.579,0.58,0.579h4.721
		c0,0,0.17-0.011,0.17,0.155v0.868c0,0.082-0.008,0.134-0.104,0.134h-1.23c-0.27,0-0.488,0.219-0.488,0.488
		c0,0.271,0.219,0.489,0.488,0.489h5.818c0.271,0,0.489-0.219,0.489-0.489c0-0.27-0.219-0.488-0.489-0.488H9.668
		c-0.071,0-0.092-0.042-0.092-0.093v-0.938c0-0.13,0.121-0.127,0.121-0.127h4.77c0.319,0,0.579-0.26,0.579-0.579V1.95
		C15.046,1.631,14.786,1.37,14.467,1.37L14.467,1.37z M8.6,12.652v0.896c0,0.046-0.024,0.102-0.096,0.102H7.494
		c-0.089,0-0.094-0.047-0.094-0.121v-0.867c0-0.127,0.152-0.133,0.152-0.133h0.918C8.471,12.528,8.6,12.521,8.6,12.652L8.6,12.652z
		 M8,11.854c-0.315,0-0.57-0.256-0.57-0.57S7.685,10.715,8,10.715s0.57,0.255,0.57,0.569S8.315,11.854,8,11.854L8,11.854z
		 M14.193,9.655c0,0.317-0.26,0.579-0.579,0.579H2.386c-0.319,0-0.58-0.262-0.58-0.579V2.907c0-0.319,0.261-0.579,0.58-0.579h11.228
		c0.319,0,0.579,0.26,0.579,0.579V9.655z M14.193,9.655"/>
</g>
</svg>
