<?xml version="1.0" encoding="utf-8"?>
<!-- Generator: Adobe Illustrator 16.0.0, SVG Export Plug-In . SVG Version: 6.00 Build 0)  -->
<!DOCTYPE svg PUBLIC "-//W3C//DTD SVG 1.1//EN" "http://www.w3.org/Graphics/SVG/1.1/DTD/svg11.dtd">
<svg version="1.1" id="Capa_1" xmlns="http://www.w3.org/2000/svg" xmlns:xlink="http://www.w3.org/1999/xlink" x="0px" y="0px"
	 width="20px" height="20px" viewBox="0 0 20 20" enable-background="new 0 0 20 20" xml:space="preserve">
<circle fill="none" stroke="#54626A" stroke-width="0.7228" stroke-miterlimit="10" cx="10" cy="9.925" r="9.638"/>
<g>
	<path fill="#54626A" d="M12.418,15.811H7.582c-0.62,0-1.126-0.507-1.126-1.128V4.917c0-0.619,0.506-1.125,1.126-1.125h4.836
		c0.621,0,1.126,0.506,1.126,1.125v9.766C13.544,15.304,13.039,15.811,12.418,15.811L12.418,15.811z M7.582,4.543
		c-0.207,0-0.374,0.168-0.374,0.374v9.766c0,0.207,0.167,0.376,0.374,0.376h4.836c0.207,0,0.376-0.169,0.376-0.376V4.917
		c0-0.205-0.169-0.374-0.376-0.374H7.582z M7.582,4.543"/>
	<path fill="#54626A" d="M10.712,14.073c0.075-0.487-0.339-0.902-0.827-0.827c-0.303,0.046-0.552,0.296-0.599,0.599
		c-0.075,0.487,0.34,0.901,0.828,0.826C10.419,14.625,10.667,14.376,10.712,14.073L10.712,14.073z M10.712,14.073"/>
	<rect x="6.832" y="5.178" fill="#54626A" width="6.338" height="0.752"/>
	<rect x="6.832" y="12.174" fill="#54626A" width="6.338" height="0.752"/>
</g>
</svg>
