<?xml version="1.0" encoding="utf-8"?>
<!-- Generator: Adobe Illustrator 16.0.0, SVG Export Plug-In . SVG Version: 6.00 Build 0)  -->
<!DOCTYPE svg PUBLIC "-//W3C//DTD SVG 1.1//EN" "http://www.w3.org/Graphics/SVG/1.1/DTD/svg11.dtd">
<svg version="1.1" id="Capa_1" xmlns="http://www.w3.org/2000/svg" xmlns:xlink="http://www.w3.org/1999/xlink" x="0px" y="0px"
	 width="24px" height="24px" viewBox="0 0 24 24" enable-background="new 0 0 24 24" xml:space="preserve">
<g>
	<g>
		<path fill="#FFFFFF" d="M22.506,18.388l-3.396-3.398c-0.677-0.675-1.797-0.654-2.498,0.046L14.9,16.747
			c-0.108-0.059-0.221-0.121-0.338-0.188c-1.082-0.6-2.561-1.419-4.119-2.978c-1.561-1.562-2.383-3.044-2.983-4.125
			C7.396,9.343,7.336,9.233,7.277,9.126L8.425,7.98l0.565-0.566c0.7-0.702,0.722-1.822,0.046-2.498L5.638,1.518
			C4.963,0.842,3.842,0.864,3.14,1.566L2.184,2.528l0.024,0.026C1.888,2.964,1.62,3.437,1.42,3.945
			c-0.185,0.486-0.3,0.949-0.351,1.412c-0.45,3.72,1.25,7.119,5.861,11.731c6.376,6.375,11.516,5.895,11.739,5.87
			c0.481-0.057,0.944-0.172,1.415-0.354c0.505-0.198,0.978-0.465,1.385-0.786l0.021,0.02l0.972-0.951
			C23.162,20.185,23.182,19.064,22.506,18.388L22.506,18.388z M21.707,20.131l-0.427,0.428l-0.17,0.163
			c-0.269,0.26-0.733,0.622-1.41,0.889c-0.386,0.147-0.766,0.242-1.15,0.29c-0.05,0.004-4.882,0.415-10.863-5.564
			C2.601,11.25,1.785,8.32,2.126,5.48C2.17,5.105,2.265,4.726,2.415,4.331c0.268-0.682,0.632-1.146,0.888-1.414l0.592-0.598
			C4.18,2.035,4.624,2.012,4.884,2.272l3.397,3.399c0.26,0.26,0.241,0.704-0.045,0.99L5.941,8.954l0.212,0.357
			c0.118,0.198,0.241,0.421,0.374,0.662c0.632,1.139,1.496,2.697,3.164,4.362c1.662,1.665,3.219,2.528,4.353,3.157
			c0.245,0.137,0.47,0.261,0.671,0.381l0.357,0.211l2.294-2.293c0.285-0.284,0.729-0.308,0.992-0.047l3.395,3.396
			C22.014,19.4,21.992,19.847,21.707,20.131L21.707,20.131z M21.707,20.131"/>
	</g>
</g>
</svg>
