<?xml version="1.0" encoding="utf-8"?>
<!-- Generator: Adobe Illustrator 16.0.0, SVG Export Plug-In . SVG Version: 6.00 Build 0)  -->
<!DOCTYPE svg PUBLIC "-//W3C//DTD SVG 1.1//EN" "http://www.w3.org/Graphics/SVG/1.1/DTD/svg11.dtd">
<svg version="1.1" id="Capa_1" xmlns="http://www.w3.org/2000/svg" xmlns:xlink="http://www.w3.org/1999/xlink" x="0px" y="0px"
	 width="16px" height="16px" viewBox="0 0 16 16" enable-background="new 0 0 16 16" xml:space="preserve">
<g>
	<path fill="#54626A" d="M13.353,0.522H2.648c-0.435,0-0.788,0.353-0.788,0.787V3.34H14.14V1.309
		C14.14,0.875,13.787,0.522,13.353,0.522z M5.564,2.298H3.238c-0.203,0-0.368-0.164-0.368-0.367c0-0.203,0.165-0.367,0.368-0.367
		h2.326c0.203,0,0.368,0.165,0.368,0.367C5.932,2.134,5.767,2.298,5.564,2.298z M8.996,2.448c-0.285,0-0.515-0.231-0.515-0.517
		c0-0.285,0.23-0.517,0.515-0.517c0.286,0,0.518,0.231,0.518,0.517C9.514,2.216,9.282,2.448,8.996,2.448z M10.571,2.448
		c-0.286,0-0.517-0.231-0.517-0.517c0-0.285,0.23-0.517,0.517-0.517s0.517,0.231,0.517,0.517
		C11.088,2.216,10.857,2.448,10.571,2.448z M12.146,2.448c-0.286,0-0.518-0.231-0.518-0.517c0-0.285,0.231-0.517,0.518-0.517
		c0.285,0,0.515,0.231,0.515,0.517C12.661,2.216,12.432,2.448,12.146,2.448z"/>
	<path fill="#54626A" d="M1.86,14.71c0,0.435,0.353,0.787,0.788,0.787h10.705c0.435,0,0.787-0.353,0.787-0.787V4.52H1.86V14.71z
		 M8,6.116c2.028,0,3.673,1.645,3.673,3.673c0,2.028-1.645,3.674-3.673,3.674c-2.029,0-3.673-1.646-3.673-3.674
		C4.327,7.761,5.971,6.116,8,6.116z"/>
	<path fill="#54626A" d="M7.164,11.217c0.026,0.025,0.06,0.038,0.092,0.038c0.035,0,0.068-0.013,0.094-0.038l2.622-2.624
		c0.052-0.052,0.052-0.135,0-0.187c-0.05-0.051-0.133-0.051-0.184,0L7.165,11.03C7.112,11.082,7.112,11.165,7.164,11.217z"/>
	<path fill="#54626A" d="M5.945,11.255c0.034,0,0.067-0.013,0.093-0.038l2.624-2.624c0.051-0.052,0.051-0.135,0-0.187
		c-0.051-0.051-0.135-0.051-0.186,0L5.852,11.03c-0.051,0.052-0.051,0.135,0,0.187C5.877,11.242,5.911,11.255,5.945,11.255z"/>
</g>
</svg>
