<?xml version="1.0" encoding="utf-8"?>
<!-- Generator: Adobe Illustrator 16.0.0, SVG Export Plug-In . SVG Version: 6.00 Build 0)  -->
<!DOCTYPE svg PUBLIC "-//W3C//DTD SVG 1.1//EN" "http://www.w3.org/Graphics/SVG/1.1/DTD/svg11.dtd">
<svg version="1.1" id="Capa_1" xmlns="http://www.w3.org/2000/svg" xmlns:xlink="http://www.w3.org/1999/xlink" x="0px" y="0px"
	 width="16px" height="16px" viewBox="0 0 16 16" enable-background="new 0 0 16 16" xml:space="preserve">
<g>
	<circle fill="#4A3F35" cx="8" cy="8" r="8"/>
	<g>
		<path fill="#FFFFFF" d="M12.016,11.043c0,0.65-0.5,1.178-1.117,1.178H5.113c-0.617,0-1.117-0.527-1.117-1.178V5.129
			c0-0.65,0.5-1.178,1.117-1.178h5.786c0.617,0,1.117,0.528,1.117,1.178V11.043z"/>
		<g>
			<path fill="#4A3F35" d="M9.618,6.243V5.15c0,0,0.021-0.227,0.227-0.227h1.113c0,0,0.207,0.021,0.207,0.206s0,1.155,0,1.155
				s-0.042,0.175-0.176,0.175s-1.165,0-1.165,0S9.618,6.449,9.618,6.243z"/>
			<path fill="#4A3F35" d="M4.835,7.438h0.781c0,0-0.445,1.529,0.798,2.555c0,0,0.664,0.605,1.647,0.588c0,0,1.193-0.05,1.84-0.873
				c0,0,0.83-0.975,0.523-2.288h0.759v3.589c0,0-0.015,0.24-0.241,0.24H5.057c0,0-0.23-0.044-0.23-0.229
				C4.827,10.833,4.835,7.438,4.835,7.438z"/>
			<circle fill="#4A3F35" cx="8.018" cy="8.098" r="1.583"/>
		</g>
	</g>
</g>
</svg>
