<?xml version="1.0" encoding="utf-8"?>
<!-- Generator: Adobe Illustrator 16.0.0, SVG Export Plug-In . SVG Version: 6.00 Build 0)  -->
<!DOCTYPE svg PUBLIC "-//W3C//DTD SVG 1.1//EN" "http://www.w3.org/Graphics/SVG/1.1/DTD/svg11.dtd">
<svg version="1.1" id="Capa_1" xmlns="http://www.w3.org/2000/svg" xmlns:xlink="http://www.w3.org/1999/xlink" x="0px" y="0px"
	 width="16px" height="16px" viewBox="0 0 16 16" enable-background="new 0 0 16 16" xml:space="preserve">
<g>
	<path fill="#54626A" d="M5.066,5.841v4.121c0,0.433,0.354,0.788,0.787,0.788h0.303v3.713c0,0.434,0.354,0.787,0.786,0.787h2.113
		c0.434,0,0.788-0.354,0.788-0.787v-3.727h0.302c0.434,0,0.787-0.354,0.787-0.787V5.841c0-0.433-0.354-0.788-0.787-0.788H5.854
		C5.407,5.054,5.066,5.408,5.066,5.841L5.066,5.841z"/>
	<path fill="#54626A" d="M9.816,2.573c0,1.008-0.816,1.824-1.824,1.824c-1.007,0-1.824-0.816-1.824-1.824
		c0-1.007,0.817-1.823,1.824-1.823C9,0.75,9.816,1.566,9.816,2.573L9.816,2.573z"/>
</g>
</svg>
