<?xml version="1.0" encoding="utf-8"?>
<!-- Generator: Adobe Illustrator 16.0.0, SVG Export Plug-In . SVG Version: 6.00 Build 0)  -->
<!DOCTYPE svg PUBLIC "-//W3C//DTD SVG 1.1//EN" "http://www.w3.org/Graphics/SVG/1.1/DTD/svg11.dtd">
<svg version="1.1" id="Capa_1" xmlns="http://www.w3.org/2000/svg" xmlns:xlink="http://www.w3.org/1999/xlink" x="0px" y="0px"
	 width="210px" height="35px" viewBox="0 0 210 35" enable-background="new 0 0 210 35" xml:space="preserve">
<g>
	<path fill="#FFFFFF" d="M34.058,15.228c0,2.866-0.685,4.999-2.054,6.395s-3.524,2.095-6.463,2.095
		c-2.921,0-5.071-0.698-6.448-2.095c-1.379-1.396-2.067-3.527-2.067-6.395V3.753h5.093v11.776c0,1.296,0.265,2.254,0.793,2.875
		c0.531,0.619,1.406,0.93,2.629,0.93c1.205,0,2.077-0.313,2.615-0.943c0.539-0.63,0.809-1.583,0.809-2.862V3.753h5.093V15.228z"/>
	<path fill="#FFFFFF" d="M40.055,16.733c0,1.078,0.324,1.854,0.972,2.328c0.647,0.477,1.556,0.713,2.726,0.713
		c0.875,0,1.615-0.158,2.217-0.479c0.603-0.318,0.904-0.826,0.904-1.52c0-0.857-0.763-1.501-2.286-1.93
		c-1.525-0.429-3.026-0.849-4.505-1.26s-2.605-1.077-3.381-1.999c-0.777-0.922-1.165-2.022-1.165-3.3
		c0-1.972,0.799-3.455,2.397-4.45c1.597-0.994,3.455-1.492,5.572-1.492c2.154,0,3.998,0.53,5.531,1.587
		c1.534,1.06,2.3,2.63,2.3,4.71h-5.092c0-0.821-0.306-1.419-0.918-1.793c-0.611-0.374-1.355-0.562-2.231-0.562
		c-0.676,0-1.255,0.128-1.739,0.383c-0.483,0.256-0.726,0.685-0.726,1.287c0,0.73,0.689,1.278,2.068,1.643
		c1.377,0.366,2.756,0.735,4.134,1.109c1.379,0.375,2.579,0.978,3.602,1.807c1.022,0.831,1.533,2.049,1.533,3.656
		c0,2.3-0.807,3.968-2.423,4.998c-1.615,1.031-3.647,1.548-6.093,1.548c-2.464,0-4.496-0.57-6.093-1.712
		c-1.598-1.141-2.396-2.897-2.396-5.272H40.055z"/>
	<path fill="#FFFFFF" d="M68.752,8.135H62.92v15.17h-5.093V8.135h-5.833V3.753h16.758V8.135z"/>
	<path fill="#FFFFFF" d="M71.053,3.781h2.026v17.662h12.405v1.863H71.053V3.781z"/>
	<path fill="#FFFFFF" d="M87.51,3.781h2.026v19.525H87.51V3.781z"/>
	<path fill="#FFFFFF" d="M92.056,3.781h2.025v10.543l12.626-10.543l2.936,0.009l-9.688,8.056l10.338,11.46h-2.876l-9.064-10.088
		l-4.271,3.495v6.593h-2.025L92.056,3.781L92.056,3.781z"/>
	<path fill="#FFFFFF" d="M111.799,3.781h15.555v1.862h-13.527v6.599h13.035v1.863h-13.035v7.338h13.744v1.861H111.8L111.799,3.781
		L111.799,3.781z"/>
	<path fill="#FFFFFF" d="M129.57,3.753h5.093v7.148h6.709V3.753h5.094v19.554h-5.094v-8.023h-6.709v8.023h-5.093V3.753z"/>
	<path fill="#FFFFFF" d="M169.057,3.753h7.504l3.367,13.035l3.424-13.035h7.504v19.554h-4.793V8.463L181.9,23.307h-3.891
		l-4.107-14.843l-0.053,14.843h-4.793V3.753L169.057,3.753z"/>
	<path fill="#FFFFFF" d="M192.742,3.753h15.583v4.081h-10.488v3.423h9.583V15.2h-9.583v3.725H208.6v4.382h-15.856L192.742,3.753
		L192.742,3.753z"/>
	<g>
		<g>
			<path fill="#FFFFFF" d="M14.64,16.677c0,2.423-0.506,4.128-1.514,5.111c-1.011,0.985-2.677,1.478-4.999,1.478h-5.99V18.04h4.021
				c0.681,0,1.193-0.133,1.534-0.398c0.341-0.265,0.511-0.738,0.511-1.42V3.787h6.438L14.64,16.677L14.64,16.677z"/>
		</g>
	</g>
	<path fill="#FFFFFF" d="M164.611,6.231c-1.717-1.925-4.071-2.889-7.064-2.889c-3.013,0-5.372,0.958-7.078,2.876
		c-1.707,1.917-2.561,4.354-2.561,7.311c0,2.939,0.855,5.372,2.572,7.297c1.715,1.927,4.071,2.89,7.065,2.89
		c3.013,0,5.371-0.959,7.078-2.876c1.707-1.916,2.562-4.354,2.562-7.311C167.186,10.59,166.327,8.158,164.611,6.231z M159.873,19
		h-4.652l0.568-7.016c-0.62-0.508-1.018-1.253-1.018-2.118c0-1.531,1.242-2.76,2.774-2.76s2.772,1.249,2.772,2.78
		c0,0.865-0.396,1.586-1.016,2.095L159.873,19z"/>
</g>
<g>
	<path fill="#FFFFFF" d="M2.905,27.725H0.932v-1.359h6.077v1.359H5.036v4.037H2.905V27.725z"/>
	<path fill="#FFFFFF" d="M13.396,26.364h5.737v1.315h-3.606v0.725h3.35v1.316h-3.35v0.725h3.606v1.315h-5.737V26.364z"/>
	<path fill="#FFFFFF" d="M25.731,26.364h3l0.884,3.136l0.9-3.136h3v5.396H31.58v-3.854l-1.149,3.854h-1.618l-1.133-3.854
		l-0.016,3.854h-1.935v-5.396H25.731z"/>
	<path fill="#FFFFFF" d="M40.455,26.364h4.399c0.73,0,1.258,0.155,1.583,0.473c0.325,0.315,0.488,0.785,0.488,1.41
		c0,0.56-0.164,1.004-0.492,1.337s-0.849,0.499-1.564,0.499h-2.283v1.679h-2.131V26.364z M42.586,28.77h1.376
		c0.267,0,0.457-0.045,0.57-0.135c0.113-0.086,0.17-0.229,0.17-0.425c0-0.203-0.057-0.349-0.17-0.44
		c-0.113-0.088-0.304-0.136-0.57-0.136h-1.376V28.77z"/>
	<path fill="#FFFFFF" d="M56.887,26.168c0.64,0,1.214,0.055,1.72,0.163c0.507,0.108,0.96,0.375,1.364,0.802
		c0.403,0.426,0.604,1.068,0.604,1.928c0,0.853-0.199,1.49-0.597,1.918c-0.399,0.426-0.857,0.695-1.376,0.806
		c-0.518,0.11-1.091,0.167-1.715,0.167c-0.64,0-1.213-0.055-1.72-0.163c-0.506-0.106-0.961-0.376-1.364-0.804
		c-0.404-0.426-0.605-1.066-0.605-1.924c0-0.854,0.199-1.494,0.598-1.92c0.397-0.428,0.856-0.695,1.375-0.806
		C55.69,26.223,56.262,26.168,56.887,26.168z M56.887,30.59c0.458,0,0.81-0.121,1.055-0.363c0.244-0.242,0.366-0.633,0.366-1.166
		c0-0.531-0.124-0.92-0.37-1.164c-0.248-0.244-0.597-0.367-1.051-0.367c-0.458,0-0.811,0.121-1.055,0.363s-0.367,0.633-0.367,1.168
		c0,0.528,0.124,0.918,0.371,1.162C56.083,30.468,56.433,30.59,56.887,30.59z"/>
	<path fill="#FFFFFF" d="M67.227,26.364h4.489c0.584,0,0.994,0.058,1.229,0.174c0.235,0.116,0.423,0.296,0.566,0.541
		c0.144,0.244,0.216,0.508,0.216,0.79c0,0.285-0.066,0.543-0.197,0.766c-0.13,0.227-0.343,0.381-0.635,0.467
		c0.176,0.06,0.322,0.162,0.439,0.307c0.116,0.143,0.173,0.322,0.173,0.54l0.091,1.179c0.01,0.116,0.039,0.229,0.086,0.341
		c0.048,0.11,0.107,0.209,0.178,0.296h-2.328c-0.041-0.082-0.069-0.199-0.087-0.353c-0.018-0.154-0.026-0.378-0.026-0.67
		c0-0.206-0.044-0.365-0.133-0.476C71.2,30.154,71.06,30.1,70.869,30.1h-1.511v1.662h-2.131V26.364z M69.358,28.738h1.511
		c0.394,0,0.59-0.17,0.59-0.508c0-0.19-0.052-0.322-0.159-0.396c-0.105-0.074-0.259-0.11-0.461-0.11h-1.481V28.738z"/>
	<path fill="#FFFFFF" d="M81.92,26.364h2.616l2.297,5.396h-2.267l-0.228-0.618h-2.222l-0.227,0.618h-2.268L81.92,26.364z
		 M83.235,27.996l-0.649,1.83h1.285L83.235,27.996z"/>
	<path fill="#FFFFFF" d="M93.001,26.364h4.49c0.585,0,0.994,0.058,1.228,0.174c0.235,0.116,0.423,0.296,0.567,0.541
		c0.144,0.244,0.216,0.508,0.216,0.79c0,0.285-0.066,0.543-0.197,0.766c-0.131,0.227-0.343,0.381-0.635,0.467
		c0.176,0.06,0.322,0.162,0.439,0.307c0.115,0.143,0.173,0.322,0.173,0.54l0.091,1.179c0.01,0.116,0.039,0.229,0.086,0.341
		c0.048,0.11,0.107,0.209,0.178,0.296H97.31c-0.041-0.082-0.07-0.199-0.087-0.353c-0.018-0.154-0.026-0.378-0.026-0.67
		c0-0.206-0.044-0.365-0.133-0.476c-0.087-0.111-0.228-0.166-0.419-0.166h-1.512v1.662h-2.131L93.001,26.364L93.001,26.364z
		 M95.132,28.738h1.512c0.393,0,0.59-0.17,0.59-0.508c0-0.19-0.053-0.322-0.159-0.396c-0.105-0.074-0.259-0.11-0.46-0.11h-1.482
		L95.132,28.738L95.132,28.738z"/>
	<path fill="#FFFFFF" d="M107.725,30.242l-2.396-3.878h2.435l1.026,2.116l1.028-2.116h2.435l-2.396,3.878v1.52h-2.133V30.242
		L107.725,30.242z"/>
	<path fill="#FFFFFF" d="M127.33,26.364h4.49c0.584,0,0.994,0.058,1.229,0.174c0.235,0.116,0.424,0.296,0.567,0.541
		c0.144,0.244,0.217,0.508,0.217,0.79c0,0.285-0.065,0.543-0.196,0.766c-0.133,0.227-0.345,0.381-0.638,0.467
		c0.178,0.06,0.323,0.162,0.438,0.307c0.115,0.143,0.174,0.322,0.174,0.54l0.092,1.179c0.01,0.116,0.039,0.229,0.088,0.341
		c0.047,0.11,0.105,0.209,0.176,0.296h-2.326c-0.041-0.082-0.07-0.199-0.089-0.353c-0.017-0.154-0.024-0.378-0.024-0.67
		c0-0.206-0.045-0.365-0.133-0.476c-0.088-0.111-0.229-0.166-0.42-0.166h-1.512v1.662h-2.133V26.364L127.33,26.364z M129.463,28.738
		h1.512c0.394,0,0.59-0.17,0.59-0.508c0-0.19-0.053-0.322-0.158-0.396c-0.105-0.074-0.26-0.11-0.461-0.11h-1.481L129.463,28.738
		L129.463,28.738z"/>
	<path fill="#FFFFFF" d="M140.498,26.364h5.736v1.315h-3.604v0.725h3.347v1.316h-3.347v0.725h3.604v1.315h-5.736V26.364
		L140.498,26.364z"/>
	<path fill="#FFFFFF" d="M152.834,26.364h2.434l2.162,2.993l0.023-2.993h2.04v5.396h-2.335l-2.27-3.022l-0.016,3.022h-2.04
		L152.834,26.364L152.834,26.364z"/>
	<path fill="#FFFFFF" d="M167.854,27.725h-1.974v-1.359h6.076v1.359h-1.974v4.037h-2.131v-4.037H167.854z"/>
	<path fill="#FFFFFF" d="M179.87,26.364h2.614l2.299,5.396h-2.268l-0.229-0.618h-2.221l-0.228,0.618h-2.269L179.87,26.364z
		 M181.186,27.996l-0.649,1.83h1.284L181.186,27.996z"/>
	<path fill="#FFFFFF" d="M190.951,26.364h2.131v3.946h3.305v1.45h-5.436V26.364z"/>
	<path fill="#FFFFFF" d="M204.072,29.471c-0.5-0.076-0.869-0.25-1.111-0.521c-0.24-0.271-0.363-0.604-0.363-1.003
		c0-0.657,0.277-1.117,0.828-1.383c0.553-0.266,1.316-0.396,2.295-0.396c1.188,0,2.064,0.148,2.627,0.448
		c0.562,0.298,0.842,0.741,0.842,1.327h-2.479c0-0.203-0.074-0.338-0.225-0.398c-0.147-0.061-0.287-0.102-0.416-0.122
		c-0.127-0.021-0.244-0.028-0.352-0.028c-0.302,0-0.52,0.031-0.654,0.102c-0.131,0.066-0.198,0.162-0.198,0.283
		c0,0.074,0.021,0.137,0.063,0.185c0.043,0.05,0.114,0.08,0.215,0.097l2.547,0.377c0.556,0.082,0.983,0.254,1.287,0.513
		c0.301,0.26,0.451,0.614,0.451,1.063c0,0.661-0.279,1.149-0.838,1.465c-0.561,0.314-1.438,0.474-2.631,0.474
		c-0.661,0-1.236-0.045-1.73-0.134c-0.492-0.086-0.901-0.266-1.225-0.531c-0.322-0.268-0.482-0.65-0.482-1.148h2.568
		c0,0.172,0.076,0.299,0.227,0.387c0.162,0.074,0.404,0.111,0.728,0.111c0.312,0,0.531-0.037,0.658-0.111
		c0.124-0.076,0.188-0.187,0.188-0.327c0-0.091-0.031-0.169-0.092-0.234c-0.06-0.065-0.158-0.108-0.295-0.129L204.072,29.471z"/>
</g>
</svg>
