<?xml version="1.0" encoding="utf-8"?>
<!-- Generator: Adobe Illustrator 16.0.0, SVG Export Plug-In . SVG Version: 6.00 Build 0)  -->
<!DOCTYPE svg PUBLIC "-//W3C//DTD SVG 1.1//EN" "http://www.w3.org/Graphics/SVG/1.1/DTD/svg11.dtd">
<svg version="1.1" id="Capa_1" xmlns="http://www.w3.org/2000/svg" xmlns:xlink="http://www.w3.org/1999/xlink" x="0px" y="0px"
	 width="20px" height="20px" viewBox="0 0 20 20" enable-background="new 0 0 20 20" xml:space="preserve">
<g>
	<g>
		<path fill="none" stroke="#54626A" stroke-width="0.8113" stroke-miterlimit="10" d="M18.709,8.888l-3.654,3.561l0.862,5.029
			c0.062,0.359-0.089,0.729-0.385,0.945c-0.169,0.119-0.369,0.184-0.567,0.184c-0.151,0-0.309-0.037-0.45-0.111L9.999,16.12
			l-4.516,2.375c-0.326,0.171-0.72,0.143-1.016-0.072c-0.297-0.216-0.448-0.581-0.385-0.945l0.864-5.027L1.293,8.888
			C1.029,8.631,0.935,8.247,1.047,7.898c0.114-0.35,0.416-0.604,0.781-0.658l5.049-0.734l2.258-4.574
			C9.299,1.599,9.633,1.392,10,1.392c0.369,0,0.703,0.207,0.866,0.537l2.26,4.576l5.049,0.736c0.363,0.052,0.665,0.307,0.778,0.658
			C19.068,8.247,18.971,8.631,18.709,8.888L18.709,8.888z"/>
	</g>
</g>
</svg>
