<?xml version="1.0" encoding="utf-8"?>
<!-- Generator: Adobe Illustrator 16.0.0, SVG Export Plug-In . SVG Version: 6.00 Build 0)  -->
<!DOCTYPE svg PUBLIC "-//W3C//DTD SVG 1.1//EN" "http://www.w3.org/Graphics/SVG/1.1/DTD/svg11.dtd">
<svg version="1.1" id="Capa_1" xmlns="http://www.w3.org/2000/svg" xmlns:xlink="http://www.w3.org/1999/xlink" x="0px" y="0px"
	 width="24px" height="24px" viewBox="0 0 24 24" enable-background="new 0 0 24 24" xml:space="preserve">
<g>
	<g>
		<path fill="none" stroke="#FFFFFF" stroke-width="1.5" stroke-miterlimit="10" d="M22.735,10.629l-4.504,4.389l1.063,6.199
			c0.075,0.443-0.11,0.898-0.476,1.166c-0.207,0.146-0.454,0.227-0.698,0.227c-0.188,0-0.38-0.047-0.556-0.137l-5.566-2.93
			l-5.566,2.93c-0.401,0.209-0.887,0.174-1.252-0.09c-0.366-0.268-0.552-0.717-0.474-1.166L5.77,15.02l-4.503-4.391
			c-0.325-0.316-0.441-0.79-0.302-1.22c0.14-0.43,0.512-0.744,0.962-0.811l6.223-0.904l2.784-5.639
			c0.201-0.41,0.614-0.665,1.066-0.665c0.454,0,0.866,0.255,1.066,0.662l2.787,5.64l6.223,0.907c0.448,0.064,0.82,0.378,0.959,0.811
			C23.177,9.839,23.058,10.313,22.735,10.629L22.735,10.629z M22.735,10.629"/>
	</g>
</g>
</svg>
