<?xml version="1.0" encoding="utf-8"?>
<!-- Generator: Adobe Illustrator 16.0.0, SVG Export Plug-In . SVG Version: 6.00 Build 0)  -->
<!DOCTYPE svg PUBLIC "-//W3C//DTD SVG 1.1//EN" "http://www.w3.org/Graphics/SVG/1.1/DTD/svg11.dtd">
<svg version="1.1" id="Capa_1" xmlns="http://www.w3.org/2000/svg" xmlns:xlink="http://www.w3.org/1999/xlink" x="0px" y="0px"
	 width="24px" height="24px" viewBox="0 0 24 24" enable-background="new 0 0 24 24" xml:space="preserve">
<g>
	<g>
		<path fill="#FFFFFF" d="M23.537,20.906l-3.459-3.451c-0.33-0.33-0.779-0.486-1.215-0.465l-1.666-1.664
			c2.836-3.748,2.547-9.107-0.867-12.524C12.597-0.931,6.539-0.931,2.806,2.81c-3.74,3.74-3.74,9.792-0.007,13.524
			c3.417,3.418,8.777,3.701,12.523,0.867l1.666,1.664c-0.021,0.436,0.133,0.887,0.463,1.217l3.453,3.451
			c0.617,0.619,1.625,0.619,2.244,0l0.383-0.383C24.156,22.533,24.156,21.531,23.537,20.906z M14.262,14.266
			c-2.591,2.592-6.802,2.598-9.394,0.006c-2.592-2.591-2.592-6.795,0.007-9.394c2.592-2.592,6.803-2.599,9.395-0.007
			C16.861,7.463,16.85,11.666,14.262,14.266z"/>
		<path fill="#FFFFFF" d="M12.169,8.573h-1.567V7.006c0-0.565-0.457-1.022-1.015-1.022H9.577c-0.559,0-1.015,0.457-1.015,1.022
			v1.566H6.996c-0.565,0-1.022,0.457-1.022,1.015v0.007c0,0.558,0.457,1.015,1.022,1.015h1.566v1.566
			c0,0.566,0.457,1.021,1.015,1.021h0.007c0.559,0,1.015-0.456,1.015-1.021v-1.566h1.566c0.565,0,1.022-0.457,1.022-1.015V9.587
			C13.195,9.029,12.738,8.573,12.169,8.573z"/>
	</g>
</g>
</svg>
